M48
; DRILL file {KiCad (5.1.5)-3} date 12/25/2019 1:57:45 PM
; FORMAT={-:-/ absolute / inch / decimal}
; #@! TF.CreationDate,2019-12-25T13:57:45+05:30
; #@! TF.GenerationSoftware,Kicad,Pcbnew,(5.1.5)-3
; #@! TF.FileFunction,Plated,1,2,PTH
FMAT,2
INCH
T1C0.0276
T2C0.0315
T3C0.0394
T4C0.0630
%
G90
G05
T1
X5.1077Y-3.4327
X5.1077Y-3.7673
X5.2077Y-3.4327
X5.2077Y-3.7673
X5.3077Y-3.4327
X5.3077Y-3.7673
X5.4077Y-3.4327
X5.4077Y-3.7673
X5.5077Y-3.4327
X5.5077Y-3.7673
X5.6077Y-3.4327
X5.6077Y-3.7673
X5.7077Y-3.4327
X5.7077Y-3.7673
X5.8077Y-3.4327
X5.8077Y-3.7673
T2
X4.9516Y-3.05
X5.05Y-3.05
X4.5016Y-4.15
X4.6Y-4.15
X4.5016Y-3.05
X4.6Y-3.05
X6.3Y-3.6
X6.3984Y-3.6
X4.512Y-3.6
X4.6104Y-3.6
X4.9516Y-4.15
X5.05Y-4.15
X5.814Y-3.05
X5.9124Y-3.05
X6.3Y-3.05
X6.3984Y-3.05
X5.8175Y-4.1485
X5.9159Y-4.1485
X6.3Y-4.1485
X6.3984Y-4.1485
T3
X4.01Y-3.795
X4.01Y-3.895
X4.01Y-3.995
X4.01Y-4.095
X5.4085Y-2.9185
X5.5085Y-2.9185
X5.4085Y-4.2795
X5.5085Y-4.2795
T4
X3.9638Y-3.2
X4.0819Y-3.385
X4.2Y-3.2
T0
M30
