G04 #@! TF.GenerationSoftware,KiCad,Pcbnew,(5.1.5)-3*
G04 #@! TF.CreationDate,2019-12-25T13:57:40+05:30*
G04 #@! TF.ProjectId,aniket,616e696b-6574-42e6-9b69-6361645f7063,rev?*
G04 #@! TF.SameCoordinates,Original*
G04 #@! TF.FileFunction,Soldermask,Bot*
G04 #@! TF.FilePolarity,Negative*
%FSLAX46Y46*%
G04 Gerber Fmt 4.6, Leading zero omitted, Abs format (unit mm)*
G04 Created by KiCad (PCBNEW (5.1.5)-3) date 2019-12-25 13:57:40*
%MOMM*%
%LPD*%
G04 APERTURE LIST*
%ADD10C,0.100000*%
G04 APERTURE END LIST*
D10*
G36*
X140029412Y-107803227D02*
G01*
X140178712Y-107832924D01*
X140342684Y-107900844D01*
X140490254Y-107999447D01*
X140615753Y-108124946D01*
X140714356Y-108272516D01*
X140782276Y-108436488D01*
X140816900Y-108610559D01*
X140816900Y-108788041D01*
X140782276Y-108962112D01*
X140714356Y-109126084D01*
X140615753Y-109273654D01*
X140490254Y-109399153D01*
X140342684Y-109497756D01*
X140178712Y-109565676D01*
X140029412Y-109595373D01*
X140004642Y-109600300D01*
X139827158Y-109600300D01*
X139802388Y-109595373D01*
X139653088Y-109565676D01*
X139489116Y-109497756D01*
X139341546Y-109399153D01*
X139216047Y-109273654D01*
X139117444Y-109126084D01*
X139049524Y-108962112D01*
X139014900Y-108788041D01*
X139014900Y-108610559D01*
X139049524Y-108436488D01*
X139117444Y-108272516D01*
X139216047Y-108124946D01*
X139341546Y-107999447D01*
X139489116Y-107900844D01*
X139653088Y-107832924D01*
X139802388Y-107803227D01*
X139827158Y-107798300D01*
X140004642Y-107798300D01*
X140029412Y-107803227D01*
G37*
G36*
X138276900Y-109600300D02*
G01*
X136474900Y-109600300D01*
X136474900Y-107798300D01*
X138276900Y-107798300D01*
X138276900Y-109600300D01*
G37*
G36*
X126018228Y-104591703D02*
G01*
X126173100Y-104655853D01*
X126312481Y-104748985D01*
X126431015Y-104867519D01*
X126524147Y-105006900D01*
X126588297Y-105161772D01*
X126621000Y-105326184D01*
X126621000Y-105493816D01*
X126588297Y-105658228D01*
X126524147Y-105813100D01*
X126431015Y-105952481D01*
X126312481Y-106071015D01*
X126173100Y-106164147D01*
X126018228Y-106228297D01*
X125853816Y-106261000D01*
X125686184Y-106261000D01*
X125521772Y-106228297D01*
X125366900Y-106164147D01*
X125227519Y-106071015D01*
X125108985Y-105952481D01*
X125015853Y-105813100D01*
X124951703Y-105658228D01*
X124919000Y-105493816D01*
X124919000Y-105326184D01*
X124951703Y-105161772D01*
X125015853Y-105006900D01*
X125108985Y-104867519D01*
X125227519Y-104748985D01*
X125366900Y-104655853D01*
X125521772Y-104591703D01*
X125686184Y-104559000D01*
X125853816Y-104559000D01*
X126018228Y-104591703D01*
G37*
G36*
X117691000Y-106261000D02*
G01*
X115989000Y-106261000D01*
X115989000Y-104559000D01*
X117691000Y-104559000D01*
X117691000Y-106261000D01*
G37*
G36*
X114588228Y-104591703D02*
G01*
X114743100Y-104655853D01*
X114882481Y-104748985D01*
X115001015Y-104867519D01*
X115094147Y-105006900D01*
X115158297Y-105161772D01*
X115191000Y-105326184D01*
X115191000Y-105493816D01*
X115158297Y-105658228D01*
X115094147Y-105813100D01*
X115001015Y-105952481D01*
X114882481Y-106071015D01*
X114743100Y-106164147D01*
X114588228Y-106228297D01*
X114423816Y-106261000D01*
X114256184Y-106261000D01*
X114091772Y-106228297D01*
X113936900Y-106164147D01*
X113797519Y-106071015D01*
X113678985Y-105952481D01*
X113585853Y-105813100D01*
X113521703Y-105658228D01*
X113489000Y-105493816D01*
X113489000Y-105326184D01*
X113521703Y-105161772D01*
X113585853Y-105006900D01*
X113678985Y-104867519D01*
X113797519Y-104748985D01*
X113936900Y-104655853D01*
X114091772Y-104591703D01*
X114256184Y-104559000D01*
X114423816Y-104559000D01*
X114588228Y-104591703D01*
G37*
G36*
X129121000Y-106261000D02*
G01*
X127419000Y-106261000D01*
X127419000Y-104559000D01*
X129121000Y-104559000D01*
X129121000Y-106261000D01*
G37*
G36*
X160871000Y-106222900D02*
G01*
X159169000Y-106222900D01*
X159169000Y-104520900D01*
X160871000Y-104520900D01*
X160871000Y-106222900D01*
G37*
G36*
X162768228Y-104553603D02*
G01*
X162923100Y-104617753D01*
X163062481Y-104710885D01*
X163181015Y-104829419D01*
X163274147Y-104968800D01*
X163338297Y-105123672D01*
X163371000Y-105288084D01*
X163371000Y-105455716D01*
X163338297Y-105620128D01*
X163274147Y-105775000D01*
X163181015Y-105914381D01*
X163062481Y-106032915D01*
X162923100Y-106126047D01*
X162768228Y-106190197D01*
X162603816Y-106222900D01*
X162436184Y-106222900D01*
X162271772Y-106190197D01*
X162116900Y-106126047D01*
X161977519Y-106032915D01*
X161858985Y-105914381D01*
X161765853Y-105775000D01*
X161701703Y-105620128D01*
X161669000Y-105455716D01*
X161669000Y-105288084D01*
X161701703Y-105123672D01*
X161765853Y-104968800D01*
X161858985Y-104829419D01*
X161977519Y-104710885D01*
X162116900Y-104617753D01*
X162271772Y-104553603D01*
X162436184Y-104520900D01*
X162603816Y-104520900D01*
X162768228Y-104553603D01*
G37*
G36*
X148615500Y-106222900D02*
G01*
X146913500Y-106222900D01*
X146913500Y-104520900D01*
X148615500Y-104520900D01*
X148615500Y-106222900D01*
G37*
G36*
X150512728Y-104553603D02*
G01*
X150667600Y-104617753D01*
X150806981Y-104710885D01*
X150925515Y-104829419D01*
X151018647Y-104968800D01*
X151082797Y-105123672D01*
X151115500Y-105288084D01*
X151115500Y-105455716D01*
X151082797Y-105620128D01*
X151018647Y-105775000D01*
X150925515Y-105914381D01*
X150806981Y-106032915D01*
X150667600Y-106126047D01*
X150512728Y-106190197D01*
X150348316Y-106222900D01*
X150180684Y-106222900D01*
X150016272Y-106190197D01*
X149861400Y-106126047D01*
X149722019Y-106032915D01*
X149603485Y-105914381D01*
X149510353Y-105775000D01*
X149446203Y-105620128D01*
X149413500Y-105455716D01*
X149413500Y-105288084D01*
X149446203Y-105123672D01*
X149510353Y-104968800D01*
X149603485Y-104829419D01*
X149722019Y-104710885D01*
X149861400Y-104617753D01*
X150016272Y-104553603D01*
X150180684Y-104520900D01*
X150348316Y-104520900D01*
X150512728Y-104553603D01*
G37*
G36*
X101967512Y-103116927D02*
G01*
X102116812Y-103146624D01*
X102280784Y-103214544D01*
X102428354Y-103313147D01*
X102553853Y-103438646D01*
X102652456Y-103586216D01*
X102720376Y-103750188D01*
X102755000Y-103924259D01*
X102755000Y-104101741D01*
X102720376Y-104275812D01*
X102652456Y-104439784D01*
X102553853Y-104587354D01*
X102428354Y-104712853D01*
X102280784Y-104811456D01*
X102116812Y-104879376D01*
X101967512Y-104909073D01*
X101942742Y-104914000D01*
X101765258Y-104914000D01*
X101740488Y-104909073D01*
X101591188Y-104879376D01*
X101427216Y-104811456D01*
X101279646Y-104712853D01*
X101154147Y-104587354D01*
X101055544Y-104439784D01*
X100987624Y-104275812D01*
X100953000Y-104101741D01*
X100953000Y-103924259D01*
X100987624Y-103750188D01*
X101055544Y-103586216D01*
X101154147Y-103438646D01*
X101279646Y-103313147D01*
X101427216Y-103214544D01*
X101591188Y-103146624D01*
X101740488Y-103116927D01*
X101765258Y-103112000D01*
X101942742Y-103112000D01*
X101967512Y-103116927D01*
G37*
G36*
X101967512Y-100576927D02*
G01*
X102116812Y-100606624D01*
X102280784Y-100674544D01*
X102428354Y-100773147D01*
X102553853Y-100898646D01*
X102652456Y-101046216D01*
X102720376Y-101210188D01*
X102755000Y-101384259D01*
X102755000Y-101561741D01*
X102720376Y-101735812D01*
X102652456Y-101899784D01*
X102553853Y-102047354D01*
X102428354Y-102172853D01*
X102280784Y-102271456D01*
X102116812Y-102339376D01*
X101967512Y-102369073D01*
X101942742Y-102374000D01*
X101765258Y-102374000D01*
X101740488Y-102369073D01*
X101591188Y-102339376D01*
X101427216Y-102271456D01*
X101279646Y-102172853D01*
X101154147Y-102047354D01*
X101055544Y-101899784D01*
X100987624Y-101735812D01*
X100953000Y-101561741D01*
X100953000Y-101384259D01*
X100987624Y-101210188D01*
X101055544Y-101046216D01*
X101154147Y-100898646D01*
X101279646Y-100773147D01*
X101427216Y-100674544D01*
X101591188Y-100606624D01*
X101740488Y-100576927D01*
X101765258Y-100572000D01*
X101942742Y-100572000D01*
X101967512Y-100576927D01*
G37*
G36*
X101967512Y-98036927D02*
G01*
X102116812Y-98066624D01*
X102280784Y-98134544D01*
X102428354Y-98233147D01*
X102553853Y-98358646D01*
X102652456Y-98506216D01*
X102720376Y-98670188D01*
X102755000Y-98844259D01*
X102755000Y-99021741D01*
X102720376Y-99195812D01*
X102652456Y-99359784D01*
X102553853Y-99507354D01*
X102428354Y-99632853D01*
X102280784Y-99731456D01*
X102116812Y-99799376D01*
X101967512Y-99829073D01*
X101942742Y-99834000D01*
X101765258Y-99834000D01*
X101740488Y-99829073D01*
X101591188Y-99799376D01*
X101427216Y-99731456D01*
X101279646Y-99632853D01*
X101154147Y-99507354D01*
X101055544Y-99359784D01*
X100987624Y-99195812D01*
X100953000Y-99021741D01*
X100953000Y-98844259D01*
X100987624Y-98670188D01*
X101055544Y-98506216D01*
X101154147Y-98358646D01*
X101279646Y-98233147D01*
X101427216Y-98134544D01*
X101591188Y-98066624D01*
X101740488Y-98036927D01*
X101765258Y-98032000D01*
X101942742Y-98032000D01*
X101967512Y-98036927D01*
G37*
G36*
X102755000Y-97294000D02*
G01*
X100953000Y-97294000D01*
X100953000Y-95492000D01*
X102755000Y-95492000D01*
X102755000Y-97294000D01*
G37*
G36*
X145112501Y-95103997D02*
G01*
X145151205Y-95111696D01*
X145183240Y-95124965D01*
X145260580Y-95157000D01*
X145359015Y-95222773D01*
X145442727Y-95306485D01*
X145508500Y-95404920D01*
X145553804Y-95514296D01*
X145576900Y-95630405D01*
X145576900Y-95748795D01*
X145553804Y-95864904D01*
X145508500Y-95974280D01*
X145442727Y-96072715D01*
X145359015Y-96156427D01*
X145260580Y-96222200D01*
X145183240Y-96254235D01*
X145151205Y-96267504D01*
X145112501Y-96275203D01*
X145035095Y-96290600D01*
X144916705Y-96290600D01*
X144839299Y-96275203D01*
X144800595Y-96267504D01*
X144768560Y-96254235D01*
X144691220Y-96222200D01*
X144592785Y-96156427D01*
X144509073Y-96072715D01*
X144443300Y-95974280D01*
X144397996Y-95864904D01*
X144374900Y-95748795D01*
X144374900Y-95630405D01*
X144397996Y-95514296D01*
X144443300Y-95404920D01*
X144509073Y-95306485D01*
X144592785Y-95222773D01*
X144691220Y-95157000D01*
X144768560Y-95124965D01*
X144800595Y-95111696D01*
X144839299Y-95103997D01*
X144916705Y-95088600D01*
X145035095Y-95088600D01*
X145112501Y-95103997D01*
G37*
G36*
X140032501Y-95103997D02*
G01*
X140071205Y-95111696D01*
X140103240Y-95124965D01*
X140180580Y-95157000D01*
X140279015Y-95222773D01*
X140362727Y-95306485D01*
X140428500Y-95404920D01*
X140473804Y-95514296D01*
X140496900Y-95630405D01*
X140496900Y-95748795D01*
X140473804Y-95864904D01*
X140428500Y-95974280D01*
X140362727Y-96072715D01*
X140279015Y-96156427D01*
X140180580Y-96222200D01*
X140103240Y-96254235D01*
X140071205Y-96267504D01*
X140032501Y-96275203D01*
X139955095Y-96290600D01*
X139836705Y-96290600D01*
X139759299Y-96275203D01*
X139720595Y-96267504D01*
X139688560Y-96254235D01*
X139611220Y-96222200D01*
X139512785Y-96156427D01*
X139429073Y-96072715D01*
X139363300Y-95974280D01*
X139317996Y-95864904D01*
X139294900Y-95748795D01*
X139294900Y-95630405D01*
X139317996Y-95514296D01*
X139363300Y-95404920D01*
X139429073Y-95306485D01*
X139512785Y-95222773D01*
X139611220Y-95157000D01*
X139688560Y-95124965D01*
X139720595Y-95111696D01*
X139759299Y-95103997D01*
X139836705Y-95088600D01*
X139955095Y-95088600D01*
X140032501Y-95103997D01*
G37*
G36*
X147652501Y-95103997D02*
G01*
X147691205Y-95111696D01*
X147723240Y-95124965D01*
X147800580Y-95157000D01*
X147899015Y-95222773D01*
X147982727Y-95306485D01*
X148048500Y-95404920D01*
X148093804Y-95514296D01*
X148116900Y-95630405D01*
X148116900Y-95748795D01*
X148093804Y-95864904D01*
X148048500Y-95974280D01*
X147982727Y-96072715D01*
X147899015Y-96156427D01*
X147800580Y-96222200D01*
X147723240Y-96254235D01*
X147691205Y-96267504D01*
X147652501Y-96275203D01*
X147575095Y-96290600D01*
X147456705Y-96290600D01*
X147379299Y-96275203D01*
X147340595Y-96267504D01*
X147308560Y-96254235D01*
X147231220Y-96222200D01*
X147132785Y-96156427D01*
X147049073Y-96072715D01*
X146983300Y-95974280D01*
X146937996Y-95864904D01*
X146914900Y-95748795D01*
X146914900Y-95630405D01*
X146937996Y-95514296D01*
X146983300Y-95404920D01*
X147049073Y-95306485D01*
X147132785Y-95222773D01*
X147231220Y-95157000D01*
X147308560Y-95124965D01*
X147340595Y-95111696D01*
X147379299Y-95103997D01*
X147456705Y-95088600D01*
X147575095Y-95088600D01*
X147652501Y-95103997D01*
G37*
G36*
X142572501Y-95103997D02*
G01*
X142611205Y-95111696D01*
X142643240Y-95124965D01*
X142720580Y-95157000D01*
X142819015Y-95222773D01*
X142902727Y-95306485D01*
X142968500Y-95404920D01*
X143013804Y-95514296D01*
X143036900Y-95630405D01*
X143036900Y-95748795D01*
X143013804Y-95864904D01*
X142968500Y-95974280D01*
X142902727Y-96072715D01*
X142819015Y-96156427D01*
X142720580Y-96222200D01*
X142643240Y-96254235D01*
X142611205Y-96267504D01*
X142572501Y-96275203D01*
X142495095Y-96290600D01*
X142376705Y-96290600D01*
X142299299Y-96275203D01*
X142260595Y-96267504D01*
X142228560Y-96254235D01*
X142151220Y-96222200D01*
X142052785Y-96156427D01*
X141969073Y-96072715D01*
X141903300Y-95974280D01*
X141857996Y-95864904D01*
X141834900Y-95748795D01*
X141834900Y-95630405D01*
X141857996Y-95514296D01*
X141903300Y-95404920D01*
X141969073Y-95306485D01*
X142052785Y-95222773D01*
X142151220Y-95157000D01*
X142228560Y-95124965D01*
X142260595Y-95111696D01*
X142299299Y-95103997D01*
X142376705Y-95088600D01*
X142495095Y-95088600D01*
X142572501Y-95103997D01*
G37*
G36*
X137492501Y-95103997D02*
G01*
X137531205Y-95111696D01*
X137563240Y-95124965D01*
X137640580Y-95157000D01*
X137739015Y-95222773D01*
X137822727Y-95306485D01*
X137888500Y-95404920D01*
X137933804Y-95514296D01*
X137956900Y-95630405D01*
X137956900Y-95748795D01*
X137933804Y-95864904D01*
X137888500Y-95974280D01*
X137822727Y-96072715D01*
X137739015Y-96156427D01*
X137640580Y-96222200D01*
X137563240Y-96254235D01*
X137531205Y-96267504D01*
X137492501Y-96275203D01*
X137415095Y-96290600D01*
X137296705Y-96290600D01*
X137219299Y-96275203D01*
X137180595Y-96267504D01*
X137148560Y-96254235D01*
X137071220Y-96222200D01*
X136972785Y-96156427D01*
X136889073Y-96072715D01*
X136823300Y-95974280D01*
X136777996Y-95864904D01*
X136754900Y-95748795D01*
X136754900Y-95630405D01*
X136777996Y-95514296D01*
X136823300Y-95404920D01*
X136889073Y-95306485D01*
X136972785Y-95222773D01*
X137071220Y-95157000D01*
X137148560Y-95124965D01*
X137180595Y-95111696D01*
X137219299Y-95103997D01*
X137296705Y-95088600D01*
X137415095Y-95088600D01*
X137492501Y-95103997D01*
G37*
G36*
X134952501Y-95103997D02*
G01*
X134991205Y-95111696D01*
X135023240Y-95124965D01*
X135100580Y-95157000D01*
X135199015Y-95222773D01*
X135282727Y-95306485D01*
X135348500Y-95404920D01*
X135393804Y-95514296D01*
X135416900Y-95630405D01*
X135416900Y-95748795D01*
X135393804Y-95864904D01*
X135348500Y-95974280D01*
X135282727Y-96072715D01*
X135199015Y-96156427D01*
X135100580Y-96222200D01*
X135023240Y-96254235D01*
X134991205Y-96267504D01*
X134952501Y-96275203D01*
X134875095Y-96290600D01*
X134756705Y-96290600D01*
X134679299Y-96275203D01*
X134640595Y-96267504D01*
X134608560Y-96254235D01*
X134531220Y-96222200D01*
X134432785Y-96156427D01*
X134349073Y-96072715D01*
X134283300Y-95974280D01*
X134237996Y-95864904D01*
X134214900Y-95748795D01*
X134214900Y-95630405D01*
X134237996Y-95514296D01*
X134283300Y-95404920D01*
X134349073Y-95306485D01*
X134432785Y-95222773D01*
X134531220Y-95157000D01*
X134608560Y-95124965D01*
X134640595Y-95111696D01*
X134679299Y-95103997D01*
X134756705Y-95088600D01*
X134875095Y-95088600D01*
X134952501Y-95103997D01*
G37*
G36*
X132412501Y-95103997D02*
G01*
X132451205Y-95111696D01*
X132483240Y-95124965D01*
X132560580Y-95157000D01*
X132659015Y-95222773D01*
X132742727Y-95306485D01*
X132808500Y-95404920D01*
X132853804Y-95514296D01*
X132876900Y-95630405D01*
X132876900Y-95748795D01*
X132853804Y-95864904D01*
X132808500Y-95974280D01*
X132742727Y-96072715D01*
X132659015Y-96156427D01*
X132560580Y-96222200D01*
X132483240Y-96254235D01*
X132451205Y-96267504D01*
X132412501Y-96275203D01*
X132335095Y-96290600D01*
X132216705Y-96290600D01*
X132139299Y-96275203D01*
X132100595Y-96267504D01*
X132068560Y-96254235D01*
X131991220Y-96222200D01*
X131892785Y-96156427D01*
X131809073Y-96072715D01*
X131743300Y-95974280D01*
X131697996Y-95864904D01*
X131674900Y-95748795D01*
X131674900Y-95630405D01*
X131697996Y-95514296D01*
X131743300Y-95404920D01*
X131809073Y-95306485D01*
X131892785Y-95222773D01*
X131991220Y-95157000D01*
X132068560Y-95124965D01*
X132100595Y-95111696D01*
X132139299Y-95103997D01*
X132216705Y-95088600D01*
X132335095Y-95088600D01*
X132412501Y-95103997D01*
G37*
G36*
X130336900Y-96290600D02*
G01*
X129134900Y-96290600D01*
X129134900Y-95088600D01*
X130336900Y-95088600D01*
X130336900Y-96290600D01*
G37*
G36*
X162768228Y-90621703D02*
G01*
X162923100Y-90685853D01*
X163062481Y-90778985D01*
X163181015Y-90897519D01*
X163274147Y-91036900D01*
X163338297Y-91191772D01*
X163371000Y-91356184D01*
X163371000Y-91523816D01*
X163338297Y-91688228D01*
X163274147Y-91843100D01*
X163181015Y-91982481D01*
X163062481Y-92101015D01*
X162923100Y-92194147D01*
X162768228Y-92258297D01*
X162603816Y-92291000D01*
X162436184Y-92291000D01*
X162271772Y-92258297D01*
X162116900Y-92194147D01*
X161977519Y-92101015D01*
X161858985Y-91982481D01*
X161765853Y-91843100D01*
X161701703Y-91688228D01*
X161669000Y-91523816D01*
X161669000Y-91356184D01*
X161701703Y-91191772D01*
X161765853Y-91036900D01*
X161858985Y-90897519D01*
X161977519Y-90778985D01*
X162116900Y-90685853D01*
X162271772Y-90621703D01*
X162436184Y-90589000D01*
X162603816Y-90589000D01*
X162768228Y-90621703D01*
G37*
G36*
X115455646Y-92291000D02*
G01*
X113753646Y-92291000D01*
X113753646Y-90589000D01*
X115455646Y-90589000D01*
X115455646Y-92291000D01*
G37*
G36*
X117352874Y-90621703D02*
G01*
X117507746Y-90685853D01*
X117647127Y-90778985D01*
X117765661Y-90897519D01*
X117858793Y-91036900D01*
X117922943Y-91191772D01*
X117955646Y-91356184D01*
X117955646Y-91523816D01*
X117922943Y-91688228D01*
X117858793Y-91843100D01*
X117765661Y-91982481D01*
X117647127Y-92101015D01*
X117507746Y-92194147D01*
X117352874Y-92258297D01*
X117188462Y-92291000D01*
X117020830Y-92291000D01*
X116856418Y-92258297D01*
X116701546Y-92194147D01*
X116562165Y-92101015D01*
X116443631Y-91982481D01*
X116350499Y-91843100D01*
X116286349Y-91688228D01*
X116253646Y-91523816D01*
X116253646Y-91356184D01*
X116286349Y-91191772D01*
X116350499Y-91036900D01*
X116443631Y-90897519D01*
X116562165Y-90778985D01*
X116701546Y-90685853D01*
X116856418Y-90621703D01*
X117020830Y-90589000D01*
X117188462Y-90589000D01*
X117352874Y-90621703D01*
G37*
G36*
X160871000Y-92291000D02*
G01*
X159169000Y-92291000D01*
X159169000Y-90589000D01*
X160871000Y-90589000D01*
X160871000Y-92291000D01*
G37*
G36*
X140032501Y-86603997D02*
G01*
X140071205Y-86611696D01*
X140091100Y-86619937D01*
X140180580Y-86657000D01*
X140279015Y-86722773D01*
X140362727Y-86806485D01*
X140428500Y-86904920D01*
X140460535Y-86982260D01*
X140473804Y-87014295D01*
X140476807Y-87029391D01*
X140496900Y-87130405D01*
X140496900Y-87248795D01*
X140473804Y-87364904D01*
X140428500Y-87474280D01*
X140362727Y-87572715D01*
X140279015Y-87656427D01*
X140180580Y-87722200D01*
X140103240Y-87754235D01*
X140071205Y-87767504D01*
X140032501Y-87775203D01*
X139955095Y-87790600D01*
X139836705Y-87790600D01*
X139759299Y-87775203D01*
X139720595Y-87767504D01*
X139688560Y-87754235D01*
X139611220Y-87722200D01*
X139512785Y-87656427D01*
X139429073Y-87572715D01*
X139363300Y-87474280D01*
X139317996Y-87364904D01*
X139294900Y-87248795D01*
X139294900Y-87130405D01*
X139314993Y-87029391D01*
X139317996Y-87014295D01*
X139331265Y-86982260D01*
X139363300Y-86904920D01*
X139429073Y-86806485D01*
X139512785Y-86722773D01*
X139611220Y-86657000D01*
X139700700Y-86619937D01*
X139720595Y-86611696D01*
X139759299Y-86603997D01*
X139836705Y-86588600D01*
X139955095Y-86588600D01*
X140032501Y-86603997D01*
G37*
G36*
X147652501Y-86603997D02*
G01*
X147691205Y-86611696D01*
X147711100Y-86619937D01*
X147800580Y-86657000D01*
X147899015Y-86722773D01*
X147982727Y-86806485D01*
X148048500Y-86904920D01*
X148080535Y-86982260D01*
X148093804Y-87014295D01*
X148096807Y-87029391D01*
X148116900Y-87130405D01*
X148116900Y-87248795D01*
X148093804Y-87364904D01*
X148048500Y-87474280D01*
X147982727Y-87572715D01*
X147899015Y-87656427D01*
X147800580Y-87722200D01*
X147723240Y-87754235D01*
X147691205Y-87767504D01*
X147652501Y-87775203D01*
X147575095Y-87790600D01*
X147456705Y-87790600D01*
X147379299Y-87775203D01*
X147340595Y-87767504D01*
X147308560Y-87754235D01*
X147231220Y-87722200D01*
X147132785Y-87656427D01*
X147049073Y-87572715D01*
X146983300Y-87474280D01*
X146937996Y-87364904D01*
X146914900Y-87248795D01*
X146914900Y-87130405D01*
X146934993Y-87029391D01*
X146937996Y-87014295D01*
X146951265Y-86982260D01*
X146983300Y-86904920D01*
X147049073Y-86806485D01*
X147132785Y-86722773D01*
X147231220Y-86657000D01*
X147320700Y-86619937D01*
X147340595Y-86611696D01*
X147379299Y-86603997D01*
X147456705Y-86588600D01*
X147575095Y-86588600D01*
X147652501Y-86603997D01*
G37*
G36*
X145112501Y-86603997D02*
G01*
X145151205Y-86611696D01*
X145171100Y-86619937D01*
X145260580Y-86657000D01*
X145359015Y-86722773D01*
X145442727Y-86806485D01*
X145508500Y-86904920D01*
X145540535Y-86982260D01*
X145553804Y-87014295D01*
X145556807Y-87029391D01*
X145576900Y-87130405D01*
X145576900Y-87248795D01*
X145553804Y-87364904D01*
X145508500Y-87474280D01*
X145442727Y-87572715D01*
X145359015Y-87656427D01*
X145260580Y-87722200D01*
X145183240Y-87754235D01*
X145151205Y-87767504D01*
X145112501Y-87775203D01*
X145035095Y-87790600D01*
X144916705Y-87790600D01*
X144839299Y-87775203D01*
X144800595Y-87767504D01*
X144768560Y-87754235D01*
X144691220Y-87722200D01*
X144592785Y-87656427D01*
X144509073Y-87572715D01*
X144443300Y-87474280D01*
X144397996Y-87364904D01*
X144374900Y-87248795D01*
X144374900Y-87130405D01*
X144394993Y-87029391D01*
X144397996Y-87014295D01*
X144411265Y-86982260D01*
X144443300Y-86904920D01*
X144509073Y-86806485D01*
X144592785Y-86722773D01*
X144691220Y-86657000D01*
X144780700Y-86619937D01*
X144800595Y-86611696D01*
X144839299Y-86603997D01*
X144916705Y-86588600D01*
X145035095Y-86588600D01*
X145112501Y-86603997D01*
G37*
G36*
X142572501Y-86603997D02*
G01*
X142611205Y-86611696D01*
X142631100Y-86619937D01*
X142720580Y-86657000D01*
X142819015Y-86722773D01*
X142902727Y-86806485D01*
X142968500Y-86904920D01*
X143000535Y-86982260D01*
X143013804Y-87014295D01*
X143016807Y-87029391D01*
X143036900Y-87130405D01*
X143036900Y-87248795D01*
X143013804Y-87364904D01*
X142968500Y-87474280D01*
X142902727Y-87572715D01*
X142819015Y-87656427D01*
X142720580Y-87722200D01*
X142643240Y-87754235D01*
X142611205Y-87767504D01*
X142572501Y-87775203D01*
X142495095Y-87790600D01*
X142376705Y-87790600D01*
X142299299Y-87775203D01*
X142260595Y-87767504D01*
X142228560Y-87754235D01*
X142151220Y-87722200D01*
X142052785Y-87656427D01*
X141969073Y-87572715D01*
X141903300Y-87474280D01*
X141857996Y-87364904D01*
X141834900Y-87248795D01*
X141834900Y-87130405D01*
X141854993Y-87029391D01*
X141857996Y-87014295D01*
X141871265Y-86982260D01*
X141903300Y-86904920D01*
X141969073Y-86806485D01*
X142052785Y-86722773D01*
X142151220Y-86657000D01*
X142240700Y-86619937D01*
X142260595Y-86611696D01*
X142299299Y-86603997D01*
X142376705Y-86588600D01*
X142495095Y-86588600D01*
X142572501Y-86603997D01*
G37*
G36*
X137492501Y-86603997D02*
G01*
X137531205Y-86611696D01*
X137551100Y-86619937D01*
X137640580Y-86657000D01*
X137739015Y-86722773D01*
X137822727Y-86806485D01*
X137888500Y-86904920D01*
X137920535Y-86982260D01*
X137933804Y-87014295D01*
X137936807Y-87029391D01*
X137956900Y-87130405D01*
X137956900Y-87248795D01*
X137933804Y-87364904D01*
X137888500Y-87474280D01*
X137822727Y-87572715D01*
X137739015Y-87656427D01*
X137640580Y-87722200D01*
X137563240Y-87754235D01*
X137531205Y-87767504D01*
X137492501Y-87775203D01*
X137415095Y-87790600D01*
X137296705Y-87790600D01*
X137219299Y-87775203D01*
X137180595Y-87767504D01*
X137148560Y-87754235D01*
X137071220Y-87722200D01*
X136972785Y-87656427D01*
X136889073Y-87572715D01*
X136823300Y-87474280D01*
X136777996Y-87364904D01*
X136754900Y-87248795D01*
X136754900Y-87130405D01*
X136774993Y-87029391D01*
X136777996Y-87014295D01*
X136791265Y-86982260D01*
X136823300Y-86904920D01*
X136889073Y-86806485D01*
X136972785Y-86722773D01*
X137071220Y-86657000D01*
X137160700Y-86619937D01*
X137180595Y-86611696D01*
X137219299Y-86603997D01*
X137296705Y-86588600D01*
X137415095Y-86588600D01*
X137492501Y-86603997D01*
G37*
G36*
X134952501Y-86603997D02*
G01*
X134991205Y-86611696D01*
X135011100Y-86619937D01*
X135100580Y-86657000D01*
X135199015Y-86722773D01*
X135282727Y-86806485D01*
X135348500Y-86904920D01*
X135380535Y-86982260D01*
X135393804Y-87014295D01*
X135396807Y-87029391D01*
X135416900Y-87130405D01*
X135416900Y-87248795D01*
X135393804Y-87364904D01*
X135348500Y-87474280D01*
X135282727Y-87572715D01*
X135199015Y-87656427D01*
X135100580Y-87722200D01*
X135023240Y-87754235D01*
X134991205Y-87767504D01*
X134952501Y-87775203D01*
X134875095Y-87790600D01*
X134756705Y-87790600D01*
X134679299Y-87775203D01*
X134640595Y-87767504D01*
X134608560Y-87754235D01*
X134531220Y-87722200D01*
X134432785Y-87656427D01*
X134349073Y-87572715D01*
X134283300Y-87474280D01*
X134237996Y-87364904D01*
X134214900Y-87248795D01*
X134214900Y-87130405D01*
X134234993Y-87029391D01*
X134237996Y-87014295D01*
X134251265Y-86982260D01*
X134283300Y-86904920D01*
X134349073Y-86806485D01*
X134432785Y-86722773D01*
X134531220Y-86657000D01*
X134620700Y-86619937D01*
X134640595Y-86611696D01*
X134679299Y-86603997D01*
X134756705Y-86588600D01*
X134875095Y-86588600D01*
X134952501Y-86603997D01*
G37*
G36*
X132412501Y-86603997D02*
G01*
X132451205Y-86611696D01*
X132471100Y-86619937D01*
X132560580Y-86657000D01*
X132659015Y-86722773D01*
X132742727Y-86806485D01*
X132808500Y-86904920D01*
X132840535Y-86982260D01*
X132853804Y-87014295D01*
X132856807Y-87029391D01*
X132876900Y-87130405D01*
X132876900Y-87248795D01*
X132853804Y-87364904D01*
X132808500Y-87474280D01*
X132742727Y-87572715D01*
X132659015Y-87656427D01*
X132560580Y-87722200D01*
X132483240Y-87754235D01*
X132451205Y-87767504D01*
X132412501Y-87775203D01*
X132335095Y-87790600D01*
X132216705Y-87790600D01*
X132139299Y-87775203D01*
X132100595Y-87767504D01*
X132068560Y-87754235D01*
X131991220Y-87722200D01*
X131892785Y-87656427D01*
X131809073Y-87572715D01*
X131743300Y-87474280D01*
X131697996Y-87364904D01*
X131674900Y-87248795D01*
X131674900Y-87130405D01*
X131694993Y-87029391D01*
X131697996Y-87014295D01*
X131711265Y-86982260D01*
X131743300Y-86904920D01*
X131809073Y-86806485D01*
X131892785Y-86722773D01*
X131991220Y-86657000D01*
X132080700Y-86619937D01*
X132100595Y-86611696D01*
X132139299Y-86603997D01*
X132216705Y-86588600D01*
X132335095Y-86588600D01*
X132412501Y-86603997D01*
G37*
G36*
X129872501Y-86603997D02*
G01*
X129911205Y-86611696D01*
X129931100Y-86619937D01*
X130020580Y-86657000D01*
X130119015Y-86722773D01*
X130202727Y-86806485D01*
X130268500Y-86904920D01*
X130300535Y-86982260D01*
X130313804Y-87014295D01*
X130316807Y-87029391D01*
X130336900Y-87130405D01*
X130336900Y-87248795D01*
X130313804Y-87364904D01*
X130268500Y-87474280D01*
X130202727Y-87572715D01*
X130119015Y-87656427D01*
X130020580Y-87722200D01*
X129943240Y-87754235D01*
X129911205Y-87767504D01*
X129872501Y-87775203D01*
X129795095Y-87790600D01*
X129676705Y-87790600D01*
X129599299Y-87775203D01*
X129560595Y-87767504D01*
X129528560Y-87754235D01*
X129451220Y-87722200D01*
X129352785Y-87656427D01*
X129269073Y-87572715D01*
X129203300Y-87474280D01*
X129157996Y-87364904D01*
X129134900Y-87248795D01*
X129134900Y-87130405D01*
X129154993Y-87029391D01*
X129157996Y-87014295D01*
X129171265Y-86982260D01*
X129203300Y-86904920D01*
X129269073Y-86806485D01*
X129352785Y-86722773D01*
X129451220Y-86657000D01*
X129540700Y-86619937D01*
X129560595Y-86611696D01*
X129599299Y-86603997D01*
X129676705Y-86588600D01*
X129795095Y-86588600D01*
X129872501Y-86603997D01*
G37*
G36*
X104074072Y-84680918D02*
G01*
X104319939Y-84782759D01*
X104431328Y-84857187D01*
X104541211Y-84930609D01*
X104729391Y-85118789D01*
X104877242Y-85340063D01*
X104979082Y-85585928D01*
X105031000Y-85846937D01*
X105031000Y-86113063D01*
X104979082Y-86374072D01*
X104880656Y-86611696D01*
X104877241Y-86619939D01*
X104729390Y-86841212D01*
X104541212Y-87029390D01*
X104319939Y-87177241D01*
X104319938Y-87177242D01*
X104319937Y-87177242D01*
X104074072Y-87279082D01*
X103813063Y-87331000D01*
X103546937Y-87331000D01*
X103285928Y-87279082D01*
X103040063Y-87177242D01*
X103040062Y-87177242D01*
X103040061Y-87177241D01*
X102818788Y-87029390D01*
X102630610Y-86841212D01*
X102482759Y-86619939D01*
X102479345Y-86611696D01*
X102380918Y-86374072D01*
X102329000Y-86113063D01*
X102329000Y-85846937D01*
X102380918Y-85585928D01*
X102482758Y-85340063D01*
X102630609Y-85118789D01*
X102818789Y-84930609D01*
X102928672Y-84857187D01*
X103040061Y-84782759D01*
X103285928Y-84680918D01*
X103546937Y-84629000D01*
X103813063Y-84629000D01*
X104074072Y-84680918D01*
G37*
G36*
X108031000Y-82631000D02*
G01*
X105329000Y-82631000D01*
X105329000Y-79929000D01*
X108031000Y-79929000D01*
X108031000Y-82631000D01*
G37*
G36*
X101074072Y-79980918D02*
G01*
X101319939Y-80082759D01*
X101541212Y-80230610D01*
X101729390Y-80418788D01*
X101877241Y-80640061D01*
X101979082Y-80885928D01*
X102031000Y-81146938D01*
X102031000Y-81413062D01*
X101979082Y-81674072D01*
X101877241Y-81919939D01*
X101729390Y-82141212D01*
X101541212Y-82329390D01*
X101319939Y-82477241D01*
X101319938Y-82477242D01*
X101319937Y-82477242D01*
X101074072Y-82579082D01*
X100813063Y-82631000D01*
X100546937Y-82631000D01*
X100285928Y-82579082D01*
X100040063Y-82477242D01*
X100040062Y-82477242D01*
X100040061Y-82477241D01*
X99818788Y-82329390D01*
X99630610Y-82141212D01*
X99482759Y-81919939D01*
X99380918Y-81674072D01*
X99329000Y-81413062D01*
X99329000Y-81146938D01*
X99380918Y-80885928D01*
X99482759Y-80640061D01*
X99630610Y-80418788D01*
X99818788Y-80230610D01*
X100040061Y-80082759D01*
X100285928Y-79980918D01*
X100546937Y-79929000D01*
X100813063Y-79929000D01*
X101074072Y-79980918D01*
G37*
G36*
X129121000Y-78321000D02*
G01*
X127419000Y-78321000D01*
X127419000Y-76619000D01*
X129121000Y-76619000D01*
X129121000Y-78321000D01*
G37*
G36*
X148526600Y-78321000D02*
G01*
X146824600Y-78321000D01*
X146824600Y-76619000D01*
X148526600Y-76619000D01*
X148526600Y-78321000D01*
G37*
G36*
X160871000Y-78321000D02*
G01*
X159169000Y-78321000D01*
X159169000Y-76619000D01*
X160871000Y-76619000D01*
X160871000Y-78321000D01*
G37*
G36*
X162768228Y-76651703D02*
G01*
X162923100Y-76715853D01*
X163062481Y-76808985D01*
X163181015Y-76927519D01*
X163274147Y-77066900D01*
X163338297Y-77221772D01*
X163371000Y-77386184D01*
X163371000Y-77553816D01*
X163338297Y-77718228D01*
X163274147Y-77873100D01*
X163181015Y-78012481D01*
X163062481Y-78131015D01*
X162923100Y-78224147D01*
X162768228Y-78288297D01*
X162603816Y-78321000D01*
X162436184Y-78321000D01*
X162271772Y-78288297D01*
X162116900Y-78224147D01*
X161977519Y-78131015D01*
X161858985Y-78012481D01*
X161765853Y-77873100D01*
X161701703Y-77718228D01*
X161669000Y-77553816D01*
X161669000Y-77386184D01*
X161701703Y-77221772D01*
X161765853Y-77066900D01*
X161858985Y-76927519D01*
X161977519Y-76808985D01*
X162116900Y-76715853D01*
X162271772Y-76651703D01*
X162436184Y-76619000D01*
X162603816Y-76619000D01*
X162768228Y-76651703D01*
G37*
G36*
X114588228Y-76651703D02*
G01*
X114743100Y-76715853D01*
X114882481Y-76808985D01*
X115001015Y-76927519D01*
X115094147Y-77066900D01*
X115158297Y-77221772D01*
X115191000Y-77386184D01*
X115191000Y-77553816D01*
X115158297Y-77718228D01*
X115094147Y-77873100D01*
X115001015Y-78012481D01*
X114882481Y-78131015D01*
X114743100Y-78224147D01*
X114588228Y-78288297D01*
X114423816Y-78321000D01*
X114256184Y-78321000D01*
X114091772Y-78288297D01*
X113936900Y-78224147D01*
X113797519Y-78131015D01*
X113678985Y-78012481D01*
X113585853Y-77873100D01*
X113521703Y-77718228D01*
X113489000Y-77553816D01*
X113489000Y-77386184D01*
X113521703Y-77221772D01*
X113585853Y-77066900D01*
X113678985Y-76927519D01*
X113797519Y-76808985D01*
X113936900Y-76715853D01*
X114091772Y-76651703D01*
X114256184Y-76619000D01*
X114423816Y-76619000D01*
X114588228Y-76651703D01*
G37*
G36*
X117691000Y-78321000D02*
G01*
X115989000Y-78321000D01*
X115989000Y-76619000D01*
X117691000Y-76619000D01*
X117691000Y-78321000D01*
G37*
G36*
X126018228Y-76651703D02*
G01*
X126173100Y-76715853D01*
X126312481Y-76808985D01*
X126431015Y-76927519D01*
X126524147Y-77066900D01*
X126588297Y-77221772D01*
X126621000Y-77386184D01*
X126621000Y-77553816D01*
X126588297Y-77718228D01*
X126524147Y-77873100D01*
X126431015Y-78012481D01*
X126312481Y-78131015D01*
X126173100Y-78224147D01*
X126018228Y-78288297D01*
X125853816Y-78321000D01*
X125686184Y-78321000D01*
X125521772Y-78288297D01*
X125366900Y-78224147D01*
X125227519Y-78131015D01*
X125108985Y-78012481D01*
X125015853Y-77873100D01*
X124951703Y-77718228D01*
X124919000Y-77553816D01*
X124919000Y-77386184D01*
X124951703Y-77221772D01*
X125015853Y-77066900D01*
X125108985Y-76927519D01*
X125227519Y-76808985D01*
X125366900Y-76715853D01*
X125521772Y-76651703D01*
X125686184Y-76619000D01*
X125853816Y-76619000D01*
X126018228Y-76651703D01*
G37*
G36*
X150423828Y-76651703D02*
G01*
X150578700Y-76715853D01*
X150718081Y-76808985D01*
X150836615Y-76927519D01*
X150929747Y-77066900D01*
X150993897Y-77221772D01*
X151026600Y-77386184D01*
X151026600Y-77553816D01*
X150993897Y-77718228D01*
X150929747Y-77873100D01*
X150836615Y-78012481D01*
X150718081Y-78131015D01*
X150578700Y-78224147D01*
X150423828Y-78288297D01*
X150259416Y-78321000D01*
X150091784Y-78321000D01*
X149927372Y-78288297D01*
X149772500Y-78224147D01*
X149633119Y-78131015D01*
X149514585Y-78012481D01*
X149421453Y-77873100D01*
X149357303Y-77718228D01*
X149324600Y-77553816D01*
X149324600Y-77386184D01*
X149357303Y-77221772D01*
X149421453Y-77066900D01*
X149514585Y-76927519D01*
X149633119Y-76808985D01*
X149772500Y-76715853D01*
X149927372Y-76651703D01*
X150091784Y-76619000D01*
X150259416Y-76619000D01*
X150423828Y-76651703D01*
G37*
G36*
X138276900Y-75030900D02*
G01*
X136474900Y-75030900D01*
X136474900Y-73228900D01*
X138276900Y-73228900D01*
X138276900Y-75030900D01*
G37*
G36*
X140029412Y-73233827D02*
G01*
X140178712Y-73263524D01*
X140342684Y-73331444D01*
X140490254Y-73430047D01*
X140615753Y-73555546D01*
X140714356Y-73703116D01*
X140782276Y-73867088D01*
X140816900Y-74041159D01*
X140816900Y-74218641D01*
X140782276Y-74392712D01*
X140714356Y-74556684D01*
X140615753Y-74704254D01*
X140490254Y-74829753D01*
X140342684Y-74928356D01*
X140178712Y-74996276D01*
X140029412Y-75025973D01*
X140004642Y-75030900D01*
X139827158Y-75030900D01*
X139802388Y-75025973D01*
X139653088Y-74996276D01*
X139489116Y-74928356D01*
X139341546Y-74829753D01*
X139216047Y-74704254D01*
X139117444Y-74556684D01*
X139049524Y-74392712D01*
X139014900Y-74218641D01*
X139014900Y-74041159D01*
X139049524Y-73867088D01*
X139117444Y-73703116D01*
X139216047Y-73555546D01*
X139341546Y-73430047D01*
X139489116Y-73331444D01*
X139653088Y-73263524D01*
X139802388Y-73233827D01*
X139827158Y-73228900D01*
X140004642Y-73228900D01*
X140029412Y-73233827D01*
G37*
M02*
