G04 #@! TF.GenerationSoftware,KiCad,Pcbnew,(5.1.5)-3*
G04 #@! TF.CreationDate,2019-12-25T13:57:40+05:30*
G04 #@! TF.ProjectId,aniket,616e696b-6574-42e6-9b69-6361645f7063,rev?*
G04 #@! TF.SameCoordinates,Original*
G04 #@! TF.FileFunction,Legend,Top*
G04 #@! TF.FilePolarity,Positive*
%FSLAX46Y46*%
G04 Gerber Fmt 4.6, Leading zero omitted, Abs format (unit mm)*
G04 Created by KiCad (PCBNEW (5.1.5)-3) date 2019-12-25 13:57:40*
%MOMM*%
%LPD*%
G04 APERTURE LIST*
%ADD10C,0.120000*%
%ADD11C,0.200000*%
%ADD12C,0.150000*%
%ADD13C,0.254000*%
G04 APERTURE END LIST*
D10*
X110875000Y-88065000D02*
X110875000Y-89065000D01*
X110375000Y-88565000D02*
X111375000Y-88565000D01*
X120935646Y-90841000D02*
X120935646Y-92039000D01*
X120895646Y-90578000D02*
X120895646Y-92302000D01*
X120855646Y-90378000D02*
X120855646Y-92502000D01*
X120815646Y-90210000D02*
X120815646Y-92670000D01*
X120775646Y-90062000D02*
X120775646Y-92818000D01*
X120735646Y-89930000D02*
X120735646Y-92950000D01*
X120695646Y-89810000D02*
X120695646Y-93070000D01*
X120655646Y-89698000D02*
X120655646Y-93182000D01*
X120615646Y-89594000D02*
X120615646Y-93286000D01*
X120575646Y-89496000D02*
X120575646Y-93384000D01*
X120535646Y-89403000D02*
X120535646Y-93477000D01*
X120495646Y-89315000D02*
X120495646Y-93565000D01*
X120455646Y-89231000D02*
X120455646Y-93649000D01*
X120415646Y-89151000D02*
X120415646Y-93729000D01*
X120375646Y-89075000D02*
X120375646Y-93805000D01*
X120335646Y-89001000D02*
X120335646Y-93879000D01*
X120295646Y-88930000D02*
X120295646Y-93950000D01*
X120255646Y-88861000D02*
X120255646Y-94019000D01*
X120215646Y-88795000D02*
X120215646Y-94085000D01*
X120175646Y-88731000D02*
X120175646Y-94149000D01*
X120135646Y-88670000D02*
X120135646Y-94210000D01*
X120095646Y-88610000D02*
X120095646Y-94270000D01*
X120055646Y-88551000D02*
X120055646Y-94329000D01*
X120015646Y-88495000D02*
X120015646Y-94385000D01*
X119975646Y-88440000D02*
X119975646Y-94440000D01*
X119935646Y-88386000D02*
X119935646Y-94494000D01*
X119895646Y-88334000D02*
X119895646Y-94546000D01*
X119855646Y-88284000D02*
X119855646Y-94596000D01*
X119815646Y-88234000D02*
X119815646Y-94646000D01*
X119775646Y-88186000D02*
X119775646Y-94694000D01*
X119735646Y-88139000D02*
X119735646Y-94741000D01*
X119695646Y-88093000D02*
X119695646Y-94787000D01*
X119655646Y-88048000D02*
X119655646Y-94832000D01*
X119615646Y-88004000D02*
X119615646Y-94876000D01*
X119575646Y-87962000D02*
X119575646Y-94918000D01*
X119535646Y-87920000D02*
X119535646Y-94960000D01*
X119495646Y-87879000D02*
X119495646Y-95001000D01*
X119455646Y-87839000D02*
X119455646Y-95041000D01*
X119415646Y-87800000D02*
X119415646Y-95080000D01*
X119375646Y-87761000D02*
X119375646Y-95119000D01*
X119335646Y-87724000D02*
X119335646Y-95156000D01*
X119295646Y-87687000D02*
X119295646Y-95193000D01*
X119255646Y-87651000D02*
X119255646Y-95229000D01*
X119215646Y-87616000D02*
X119215646Y-95264000D01*
X119175646Y-87582000D02*
X119175646Y-95298000D01*
X119135646Y-87548000D02*
X119135646Y-95332000D01*
X119095646Y-87515000D02*
X119095646Y-95365000D01*
X119055646Y-87483000D02*
X119055646Y-95397000D01*
X119015646Y-87451000D02*
X119015646Y-95429000D01*
X118975646Y-87420000D02*
X118975646Y-95460000D01*
X118935646Y-87390000D02*
X118935646Y-95490000D01*
X118895646Y-87360000D02*
X118895646Y-95520000D01*
X118855646Y-87330000D02*
X118855646Y-95550000D01*
X118815646Y-87302000D02*
X118815646Y-95578000D01*
X118775646Y-87274000D02*
X118775646Y-95606000D01*
X118735646Y-87246000D02*
X118735646Y-95634000D01*
X118695646Y-87219000D02*
X118695646Y-95661000D01*
X118655646Y-87193000D02*
X118655646Y-95687000D01*
X118615646Y-87167000D02*
X118615646Y-95713000D01*
X118575646Y-87142000D02*
X118575646Y-95738000D01*
X118535646Y-87117000D02*
X118535646Y-95763000D01*
X118495646Y-87093000D02*
X118495646Y-95787000D01*
X118455646Y-87069000D02*
X118455646Y-95811000D01*
X118415646Y-87045000D02*
X118415646Y-95835000D01*
X118375646Y-87023000D02*
X118375646Y-95857000D01*
X118335646Y-87000000D02*
X118335646Y-95880000D01*
X118295646Y-86978000D02*
X118295646Y-95902000D01*
X118255646Y-86957000D02*
X118255646Y-95923000D01*
X118215646Y-86936000D02*
X118215646Y-95944000D01*
X118175646Y-86915000D02*
X118175646Y-95965000D01*
X118135646Y-92480000D02*
X118135646Y-95985000D01*
X118135646Y-86895000D02*
X118135646Y-90400000D01*
X118095646Y-92480000D02*
X118095646Y-96004000D01*
X118095646Y-86876000D02*
X118095646Y-90400000D01*
X118055646Y-92480000D02*
X118055646Y-96024000D01*
X118055646Y-86856000D02*
X118055646Y-90400000D01*
X118015646Y-92480000D02*
X118015646Y-96043000D01*
X118015646Y-86837000D02*
X118015646Y-90400000D01*
X117975646Y-92480000D02*
X117975646Y-96061000D01*
X117975646Y-86819000D02*
X117975646Y-90400000D01*
X117935646Y-92480000D02*
X117935646Y-96079000D01*
X117935646Y-86801000D02*
X117935646Y-90400000D01*
X117895646Y-92480000D02*
X117895646Y-96097000D01*
X117895646Y-86783000D02*
X117895646Y-90400000D01*
X117855646Y-92480000D02*
X117855646Y-96114000D01*
X117855646Y-86766000D02*
X117855646Y-90400000D01*
X117815646Y-92480000D02*
X117815646Y-96130000D01*
X117815646Y-86750000D02*
X117815646Y-90400000D01*
X117775646Y-92480000D02*
X117775646Y-96147000D01*
X117775646Y-86733000D02*
X117775646Y-90400000D01*
X117735646Y-92480000D02*
X117735646Y-96163000D01*
X117735646Y-86717000D02*
X117735646Y-90400000D01*
X117695646Y-92480000D02*
X117695646Y-96178000D01*
X117695646Y-86702000D02*
X117695646Y-90400000D01*
X117655646Y-92480000D02*
X117655646Y-96194000D01*
X117655646Y-86686000D02*
X117655646Y-90400000D01*
X117615646Y-92480000D02*
X117615646Y-96208000D01*
X117615646Y-86672000D02*
X117615646Y-90400000D01*
X117575646Y-92480000D02*
X117575646Y-96223000D01*
X117575646Y-86657000D02*
X117575646Y-90400000D01*
X117535646Y-92480000D02*
X117535646Y-96237000D01*
X117535646Y-86643000D02*
X117535646Y-90400000D01*
X117495646Y-92480000D02*
X117495646Y-96251000D01*
X117495646Y-86629000D02*
X117495646Y-90400000D01*
X117455646Y-92480000D02*
X117455646Y-96264000D01*
X117455646Y-86616000D02*
X117455646Y-90400000D01*
X117415646Y-92480000D02*
X117415646Y-96277000D01*
X117415646Y-86603000D02*
X117415646Y-90400000D01*
X117375646Y-92480000D02*
X117375646Y-96290000D01*
X117375646Y-86590000D02*
X117375646Y-90400000D01*
X117335646Y-92480000D02*
X117335646Y-96302000D01*
X117335646Y-86578000D02*
X117335646Y-90400000D01*
X117295646Y-92480000D02*
X117295646Y-96314000D01*
X117295646Y-86566000D02*
X117295646Y-90400000D01*
X117255646Y-92480000D02*
X117255646Y-96325000D01*
X117255646Y-86555000D02*
X117255646Y-90400000D01*
X117215646Y-92480000D02*
X117215646Y-96337000D01*
X117215646Y-86543000D02*
X117215646Y-90400000D01*
X117175646Y-92480000D02*
X117175646Y-96347000D01*
X117175646Y-86533000D02*
X117175646Y-90400000D01*
X117135646Y-92480000D02*
X117135646Y-96358000D01*
X117135646Y-86522000D02*
X117135646Y-90400000D01*
X117095646Y-92480000D02*
X117095646Y-96368000D01*
X117095646Y-86512000D02*
X117095646Y-90400000D01*
X117055646Y-92480000D02*
X117055646Y-96378000D01*
X117055646Y-86502000D02*
X117055646Y-90400000D01*
X117015646Y-92480000D02*
X117015646Y-96387000D01*
X117015646Y-86493000D02*
X117015646Y-90400000D01*
X116975646Y-92480000D02*
X116975646Y-96396000D01*
X116975646Y-86484000D02*
X116975646Y-90400000D01*
X116935646Y-92480000D02*
X116935646Y-96405000D01*
X116935646Y-86475000D02*
X116935646Y-90400000D01*
X116895646Y-92480000D02*
X116895646Y-96414000D01*
X116895646Y-86466000D02*
X116895646Y-90400000D01*
X116855646Y-92480000D02*
X116855646Y-96422000D01*
X116855646Y-86458000D02*
X116855646Y-90400000D01*
X116815646Y-92480000D02*
X116815646Y-96430000D01*
X116815646Y-86450000D02*
X116815646Y-90400000D01*
X116775646Y-92480000D02*
X116775646Y-96437000D01*
X116775646Y-86443000D02*
X116775646Y-90400000D01*
X116735646Y-92480000D02*
X116735646Y-96444000D01*
X116735646Y-86436000D02*
X116735646Y-90400000D01*
X116695646Y-92480000D02*
X116695646Y-96451000D01*
X116695646Y-86429000D02*
X116695646Y-90400000D01*
X116655646Y-92480000D02*
X116655646Y-96458000D01*
X116655646Y-86422000D02*
X116655646Y-90400000D01*
X116615646Y-92480000D02*
X116615646Y-96464000D01*
X116615646Y-86416000D02*
X116615646Y-90400000D01*
X116575646Y-92480000D02*
X116575646Y-96470000D01*
X116575646Y-86410000D02*
X116575646Y-90400000D01*
X116534646Y-92480000D02*
X116534646Y-96475000D01*
X116534646Y-86405000D02*
X116534646Y-90400000D01*
X116494646Y-92480000D02*
X116494646Y-96480000D01*
X116494646Y-86400000D02*
X116494646Y-90400000D01*
X116454646Y-92480000D02*
X116454646Y-96485000D01*
X116454646Y-86395000D02*
X116454646Y-90400000D01*
X116414646Y-92480000D02*
X116414646Y-96490000D01*
X116414646Y-86390000D02*
X116414646Y-90400000D01*
X116374646Y-92480000D02*
X116374646Y-96494000D01*
X116374646Y-86386000D02*
X116374646Y-90400000D01*
X116334646Y-92480000D02*
X116334646Y-96498000D01*
X116334646Y-86382000D02*
X116334646Y-90400000D01*
X116294646Y-92480000D02*
X116294646Y-96502000D01*
X116294646Y-86378000D02*
X116294646Y-90400000D01*
X116254646Y-92480000D02*
X116254646Y-96505000D01*
X116254646Y-86375000D02*
X116254646Y-90400000D01*
X116214646Y-92480000D02*
X116214646Y-96508000D01*
X116214646Y-86372000D02*
X116214646Y-90400000D01*
X116174646Y-92480000D02*
X116174646Y-96510000D01*
X116174646Y-86370000D02*
X116174646Y-90400000D01*
X116134646Y-92480000D02*
X116134646Y-96513000D01*
X116134646Y-86367000D02*
X116134646Y-90400000D01*
X116094646Y-92480000D02*
X116094646Y-96515000D01*
X116094646Y-86365000D02*
X116094646Y-90400000D01*
X116054646Y-86363000D02*
X116054646Y-96517000D01*
X116014646Y-86362000D02*
X116014646Y-96518000D01*
X115974646Y-86361000D02*
X115974646Y-96519000D01*
X115934646Y-86360000D02*
X115934646Y-96520000D01*
X115894646Y-86360000D02*
X115894646Y-96520000D01*
X115854646Y-86360000D02*
X115854646Y-96520000D01*
X120974646Y-91440000D02*
G75*
G03X120974646Y-91440000I-5120000J0D01*
G01*
X156290354Y-74095000D02*
X156290354Y-75095000D01*
X155790354Y-74595000D02*
X156790354Y-74595000D01*
X166351000Y-76871000D02*
X166351000Y-78069000D01*
X166311000Y-76608000D02*
X166311000Y-78332000D01*
X166271000Y-76408000D02*
X166271000Y-78532000D01*
X166231000Y-76240000D02*
X166231000Y-78700000D01*
X166191000Y-76092000D02*
X166191000Y-78848000D01*
X166151000Y-75960000D02*
X166151000Y-78980000D01*
X166111000Y-75840000D02*
X166111000Y-79100000D01*
X166071000Y-75728000D02*
X166071000Y-79212000D01*
X166031000Y-75624000D02*
X166031000Y-79316000D01*
X165991000Y-75526000D02*
X165991000Y-79414000D01*
X165951000Y-75433000D02*
X165951000Y-79507000D01*
X165911000Y-75345000D02*
X165911000Y-79595000D01*
X165871000Y-75261000D02*
X165871000Y-79679000D01*
X165831000Y-75181000D02*
X165831000Y-79759000D01*
X165791000Y-75105000D02*
X165791000Y-79835000D01*
X165751000Y-75031000D02*
X165751000Y-79909000D01*
X165711000Y-74960000D02*
X165711000Y-79980000D01*
X165671000Y-74891000D02*
X165671000Y-80049000D01*
X165631000Y-74825000D02*
X165631000Y-80115000D01*
X165591000Y-74761000D02*
X165591000Y-80179000D01*
X165551000Y-74700000D02*
X165551000Y-80240000D01*
X165511000Y-74640000D02*
X165511000Y-80300000D01*
X165471000Y-74581000D02*
X165471000Y-80359000D01*
X165431000Y-74525000D02*
X165431000Y-80415000D01*
X165391000Y-74470000D02*
X165391000Y-80470000D01*
X165351000Y-74416000D02*
X165351000Y-80524000D01*
X165311000Y-74364000D02*
X165311000Y-80576000D01*
X165271000Y-74314000D02*
X165271000Y-80626000D01*
X165231000Y-74264000D02*
X165231000Y-80676000D01*
X165191000Y-74216000D02*
X165191000Y-80724000D01*
X165151000Y-74169000D02*
X165151000Y-80771000D01*
X165111000Y-74123000D02*
X165111000Y-80817000D01*
X165071000Y-74078000D02*
X165071000Y-80862000D01*
X165031000Y-74034000D02*
X165031000Y-80906000D01*
X164991000Y-73992000D02*
X164991000Y-80948000D01*
X164951000Y-73950000D02*
X164951000Y-80990000D01*
X164911000Y-73909000D02*
X164911000Y-81031000D01*
X164871000Y-73869000D02*
X164871000Y-81071000D01*
X164831000Y-73830000D02*
X164831000Y-81110000D01*
X164791000Y-73791000D02*
X164791000Y-81149000D01*
X164751000Y-73754000D02*
X164751000Y-81186000D01*
X164711000Y-73717000D02*
X164711000Y-81223000D01*
X164671000Y-73681000D02*
X164671000Y-81259000D01*
X164631000Y-73646000D02*
X164631000Y-81294000D01*
X164591000Y-73612000D02*
X164591000Y-81328000D01*
X164551000Y-73578000D02*
X164551000Y-81362000D01*
X164511000Y-73545000D02*
X164511000Y-81395000D01*
X164471000Y-73513000D02*
X164471000Y-81427000D01*
X164431000Y-73481000D02*
X164431000Y-81459000D01*
X164391000Y-73450000D02*
X164391000Y-81490000D01*
X164351000Y-73420000D02*
X164351000Y-81520000D01*
X164311000Y-73390000D02*
X164311000Y-81550000D01*
X164271000Y-73360000D02*
X164271000Y-81580000D01*
X164231000Y-73332000D02*
X164231000Y-81608000D01*
X164191000Y-73304000D02*
X164191000Y-81636000D01*
X164151000Y-73276000D02*
X164151000Y-81664000D01*
X164111000Y-73249000D02*
X164111000Y-81691000D01*
X164071000Y-73223000D02*
X164071000Y-81717000D01*
X164031000Y-73197000D02*
X164031000Y-81743000D01*
X163991000Y-73172000D02*
X163991000Y-81768000D01*
X163951000Y-73147000D02*
X163951000Y-81793000D01*
X163911000Y-73123000D02*
X163911000Y-81817000D01*
X163871000Y-73099000D02*
X163871000Y-81841000D01*
X163831000Y-73075000D02*
X163831000Y-81865000D01*
X163791000Y-73053000D02*
X163791000Y-81887000D01*
X163751000Y-73030000D02*
X163751000Y-81910000D01*
X163711000Y-73008000D02*
X163711000Y-81932000D01*
X163671000Y-72987000D02*
X163671000Y-81953000D01*
X163631000Y-72966000D02*
X163631000Y-81974000D01*
X163591000Y-72945000D02*
X163591000Y-81995000D01*
X163551000Y-78510000D02*
X163551000Y-82015000D01*
X163551000Y-72925000D02*
X163551000Y-76430000D01*
X163511000Y-78510000D02*
X163511000Y-82034000D01*
X163511000Y-72906000D02*
X163511000Y-76430000D01*
X163471000Y-78510000D02*
X163471000Y-82054000D01*
X163471000Y-72886000D02*
X163471000Y-76430000D01*
X163431000Y-78510000D02*
X163431000Y-82073000D01*
X163431000Y-72867000D02*
X163431000Y-76430000D01*
X163391000Y-78510000D02*
X163391000Y-82091000D01*
X163391000Y-72849000D02*
X163391000Y-76430000D01*
X163351000Y-78510000D02*
X163351000Y-82109000D01*
X163351000Y-72831000D02*
X163351000Y-76430000D01*
X163311000Y-78510000D02*
X163311000Y-82127000D01*
X163311000Y-72813000D02*
X163311000Y-76430000D01*
X163271000Y-78510000D02*
X163271000Y-82144000D01*
X163271000Y-72796000D02*
X163271000Y-76430000D01*
X163231000Y-78510000D02*
X163231000Y-82160000D01*
X163231000Y-72780000D02*
X163231000Y-76430000D01*
X163191000Y-78510000D02*
X163191000Y-82177000D01*
X163191000Y-72763000D02*
X163191000Y-76430000D01*
X163151000Y-78510000D02*
X163151000Y-82193000D01*
X163151000Y-72747000D02*
X163151000Y-76430000D01*
X163111000Y-78510000D02*
X163111000Y-82208000D01*
X163111000Y-72732000D02*
X163111000Y-76430000D01*
X163071000Y-78510000D02*
X163071000Y-82224000D01*
X163071000Y-72716000D02*
X163071000Y-76430000D01*
X163031000Y-78510000D02*
X163031000Y-82238000D01*
X163031000Y-72702000D02*
X163031000Y-76430000D01*
X162991000Y-78510000D02*
X162991000Y-82253000D01*
X162991000Y-72687000D02*
X162991000Y-76430000D01*
X162951000Y-78510000D02*
X162951000Y-82267000D01*
X162951000Y-72673000D02*
X162951000Y-76430000D01*
X162911000Y-78510000D02*
X162911000Y-82281000D01*
X162911000Y-72659000D02*
X162911000Y-76430000D01*
X162871000Y-78510000D02*
X162871000Y-82294000D01*
X162871000Y-72646000D02*
X162871000Y-76430000D01*
X162831000Y-78510000D02*
X162831000Y-82307000D01*
X162831000Y-72633000D02*
X162831000Y-76430000D01*
X162791000Y-78510000D02*
X162791000Y-82320000D01*
X162791000Y-72620000D02*
X162791000Y-76430000D01*
X162751000Y-78510000D02*
X162751000Y-82332000D01*
X162751000Y-72608000D02*
X162751000Y-76430000D01*
X162711000Y-78510000D02*
X162711000Y-82344000D01*
X162711000Y-72596000D02*
X162711000Y-76430000D01*
X162671000Y-78510000D02*
X162671000Y-82355000D01*
X162671000Y-72585000D02*
X162671000Y-76430000D01*
X162631000Y-78510000D02*
X162631000Y-82367000D01*
X162631000Y-72573000D02*
X162631000Y-76430000D01*
X162591000Y-78510000D02*
X162591000Y-82377000D01*
X162591000Y-72563000D02*
X162591000Y-76430000D01*
X162551000Y-78510000D02*
X162551000Y-82388000D01*
X162551000Y-72552000D02*
X162551000Y-76430000D01*
X162511000Y-78510000D02*
X162511000Y-82398000D01*
X162511000Y-72542000D02*
X162511000Y-76430000D01*
X162471000Y-78510000D02*
X162471000Y-82408000D01*
X162471000Y-72532000D02*
X162471000Y-76430000D01*
X162431000Y-78510000D02*
X162431000Y-82417000D01*
X162431000Y-72523000D02*
X162431000Y-76430000D01*
X162391000Y-78510000D02*
X162391000Y-82426000D01*
X162391000Y-72514000D02*
X162391000Y-76430000D01*
X162351000Y-78510000D02*
X162351000Y-82435000D01*
X162351000Y-72505000D02*
X162351000Y-76430000D01*
X162311000Y-78510000D02*
X162311000Y-82444000D01*
X162311000Y-72496000D02*
X162311000Y-76430000D01*
X162271000Y-78510000D02*
X162271000Y-82452000D01*
X162271000Y-72488000D02*
X162271000Y-76430000D01*
X162231000Y-78510000D02*
X162231000Y-82460000D01*
X162231000Y-72480000D02*
X162231000Y-76430000D01*
X162191000Y-78510000D02*
X162191000Y-82467000D01*
X162191000Y-72473000D02*
X162191000Y-76430000D01*
X162151000Y-78510000D02*
X162151000Y-82474000D01*
X162151000Y-72466000D02*
X162151000Y-76430000D01*
X162111000Y-78510000D02*
X162111000Y-82481000D01*
X162111000Y-72459000D02*
X162111000Y-76430000D01*
X162071000Y-78510000D02*
X162071000Y-82488000D01*
X162071000Y-72452000D02*
X162071000Y-76430000D01*
X162031000Y-78510000D02*
X162031000Y-82494000D01*
X162031000Y-72446000D02*
X162031000Y-76430000D01*
X161991000Y-78510000D02*
X161991000Y-82500000D01*
X161991000Y-72440000D02*
X161991000Y-76430000D01*
X161950000Y-78510000D02*
X161950000Y-82505000D01*
X161950000Y-72435000D02*
X161950000Y-76430000D01*
X161910000Y-78510000D02*
X161910000Y-82510000D01*
X161910000Y-72430000D02*
X161910000Y-76430000D01*
X161870000Y-78510000D02*
X161870000Y-82515000D01*
X161870000Y-72425000D02*
X161870000Y-76430000D01*
X161830000Y-78510000D02*
X161830000Y-82520000D01*
X161830000Y-72420000D02*
X161830000Y-76430000D01*
X161790000Y-78510000D02*
X161790000Y-82524000D01*
X161790000Y-72416000D02*
X161790000Y-76430000D01*
X161750000Y-78510000D02*
X161750000Y-82528000D01*
X161750000Y-72412000D02*
X161750000Y-76430000D01*
X161710000Y-78510000D02*
X161710000Y-82532000D01*
X161710000Y-72408000D02*
X161710000Y-76430000D01*
X161670000Y-78510000D02*
X161670000Y-82535000D01*
X161670000Y-72405000D02*
X161670000Y-76430000D01*
X161630000Y-78510000D02*
X161630000Y-82538000D01*
X161630000Y-72402000D02*
X161630000Y-76430000D01*
X161590000Y-78510000D02*
X161590000Y-82540000D01*
X161590000Y-72400000D02*
X161590000Y-76430000D01*
X161550000Y-78510000D02*
X161550000Y-82543000D01*
X161550000Y-72397000D02*
X161550000Y-76430000D01*
X161510000Y-78510000D02*
X161510000Y-82545000D01*
X161510000Y-72395000D02*
X161510000Y-76430000D01*
X161470000Y-72393000D02*
X161470000Y-82547000D01*
X161430000Y-72392000D02*
X161430000Y-82548000D01*
X161390000Y-72391000D02*
X161390000Y-82549000D01*
X161350000Y-72390000D02*
X161350000Y-82550000D01*
X161310000Y-72390000D02*
X161310000Y-82550000D01*
X161270000Y-72390000D02*
X161270000Y-82550000D01*
X166390000Y-77470000D02*
G75*
G03X166390000Y-77470000I-5120000J0D01*
G01*
X107720000Y-76440000D02*
X107720000Y-78180000D01*
X105980000Y-76440000D02*
X107720000Y-76440000D01*
X107480000Y-85880000D02*
X105480000Y-85880000D01*
X107480000Y-83080000D02*
X107480000Y-85880000D01*
X107480000Y-76680000D02*
X107480000Y-79480000D01*
X92880000Y-76680000D02*
X107480000Y-76680000D01*
X92880000Y-85880000D02*
X92880000Y-76680000D01*
X101880000Y-85880000D02*
X92880000Y-85880000D01*
X136045900Y-74129900D02*
X136045900Y-72799900D01*
X136045900Y-72799900D02*
X137375900Y-72799900D01*
X138645900Y-72799900D02*
X141245900Y-72799900D01*
X141245900Y-75459900D02*
X141245900Y-72799900D01*
X138645900Y-75459900D02*
X141245900Y-75459900D01*
X138645900Y-75459900D02*
X138645900Y-72799900D01*
X136045900Y-108699300D02*
X136045900Y-107369300D01*
X136045900Y-107369300D02*
X137375900Y-107369300D01*
X138645900Y-107369300D02*
X141245900Y-107369300D01*
X141245900Y-110029300D02*
X141245900Y-107369300D01*
X138645900Y-110029300D02*
X141245900Y-110029300D01*
X138645900Y-110029300D02*
X138645900Y-107369300D01*
X101854000Y-95063000D02*
X103184000Y-95063000D01*
X103184000Y-95063000D02*
X103184000Y-96393000D01*
X103184000Y-97663000D02*
X103184000Y-105343000D01*
X100524000Y-105343000D02*
X103184000Y-105343000D01*
X100524000Y-97663000D02*
X100524000Y-105343000D01*
X100524000Y-97663000D02*
X103184000Y-97663000D01*
D11*
X148625900Y-94989600D02*
X148625900Y-87889600D01*
X128625900Y-96239600D02*
X128625900Y-87889600D01*
D10*
X120569646Y-80845000D02*
X120569646Y-79845000D01*
X121069646Y-80345000D02*
X120069646Y-80345000D01*
X110509000Y-78069000D02*
X110509000Y-76871000D01*
X110549000Y-78332000D02*
X110549000Y-76608000D01*
X110589000Y-78532000D02*
X110589000Y-76408000D01*
X110629000Y-78700000D02*
X110629000Y-76240000D01*
X110669000Y-78848000D02*
X110669000Y-76092000D01*
X110709000Y-78980000D02*
X110709000Y-75960000D01*
X110749000Y-79100000D02*
X110749000Y-75840000D01*
X110789000Y-79212000D02*
X110789000Y-75728000D01*
X110829000Y-79316000D02*
X110829000Y-75624000D01*
X110869000Y-79414000D02*
X110869000Y-75526000D01*
X110909000Y-79507000D02*
X110909000Y-75433000D01*
X110949000Y-79595000D02*
X110949000Y-75345000D01*
X110989000Y-79679000D02*
X110989000Y-75261000D01*
X111029000Y-79759000D02*
X111029000Y-75181000D01*
X111069000Y-79835000D02*
X111069000Y-75105000D01*
X111109000Y-79909000D02*
X111109000Y-75031000D01*
X111149000Y-79980000D02*
X111149000Y-74960000D01*
X111189000Y-80049000D02*
X111189000Y-74891000D01*
X111229000Y-80115000D02*
X111229000Y-74825000D01*
X111269000Y-80179000D02*
X111269000Y-74761000D01*
X111309000Y-80240000D02*
X111309000Y-74700000D01*
X111349000Y-80300000D02*
X111349000Y-74640000D01*
X111389000Y-80359000D02*
X111389000Y-74581000D01*
X111429000Y-80415000D02*
X111429000Y-74525000D01*
X111469000Y-80470000D02*
X111469000Y-74470000D01*
X111509000Y-80524000D02*
X111509000Y-74416000D01*
X111549000Y-80576000D02*
X111549000Y-74364000D01*
X111589000Y-80626000D02*
X111589000Y-74314000D01*
X111629000Y-80676000D02*
X111629000Y-74264000D01*
X111669000Y-80724000D02*
X111669000Y-74216000D01*
X111709000Y-80771000D02*
X111709000Y-74169000D01*
X111749000Y-80817000D02*
X111749000Y-74123000D01*
X111789000Y-80862000D02*
X111789000Y-74078000D01*
X111829000Y-80906000D02*
X111829000Y-74034000D01*
X111869000Y-80948000D02*
X111869000Y-73992000D01*
X111909000Y-80990000D02*
X111909000Y-73950000D01*
X111949000Y-81031000D02*
X111949000Y-73909000D01*
X111989000Y-81071000D02*
X111989000Y-73869000D01*
X112029000Y-81110000D02*
X112029000Y-73830000D01*
X112069000Y-81149000D02*
X112069000Y-73791000D01*
X112109000Y-81186000D02*
X112109000Y-73754000D01*
X112149000Y-81223000D02*
X112149000Y-73717000D01*
X112189000Y-81259000D02*
X112189000Y-73681000D01*
X112229000Y-81294000D02*
X112229000Y-73646000D01*
X112269000Y-81328000D02*
X112269000Y-73612000D01*
X112309000Y-81362000D02*
X112309000Y-73578000D01*
X112349000Y-81395000D02*
X112349000Y-73545000D01*
X112389000Y-81427000D02*
X112389000Y-73513000D01*
X112429000Y-81459000D02*
X112429000Y-73481000D01*
X112469000Y-81490000D02*
X112469000Y-73450000D01*
X112509000Y-81520000D02*
X112509000Y-73420000D01*
X112549000Y-81550000D02*
X112549000Y-73390000D01*
X112589000Y-81580000D02*
X112589000Y-73360000D01*
X112629000Y-81608000D02*
X112629000Y-73332000D01*
X112669000Y-81636000D02*
X112669000Y-73304000D01*
X112709000Y-81664000D02*
X112709000Y-73276000D01*
X112749000Y-81691000D02*
X112749000Y-73249000D01*
X112789000Y-81717000D02*
X112789000Y-73223000D01*
X112829000Y-81743000D02*
X112829000Y-73197000D01*
X112869000Y-81768000D02*
X112869000Y-73172000D01*
X112909000Y-81793000D02*
X112909000Y-73147000D01*
X112949000Y-81817000D02*
X112949000Y-73123000D01*
X112989000Y-81841000D02*
X112989000Y-73099000D01*
X113029000Y-81865000D02*
X113029000Y-73075000D01*
X113069000Y-81887000D02*
X113069000Y-73053000D01*
X113109000Y-81910000D02*
X113109000Y-73030000D01*
X113149000Y-81932000D02*
X113149000Y-73008000D01*
X113189000Y-81953000D02*
X113189000Y-72987000D01*
X113229000Y-81974000D02*
X113229000Y-72966000D01*
X113269000Y-81995000D02*
X113269000Y-72945000D01*
X113309000Y-76430000D02*
X113309000Y-72925000D01*
X113309000Y-82015000D02*
X113309000Y-78510000D01*
X113349000Y-76430000D02*
X113349000Y-72906000D01*
X113349000Y-82034000D02*
X113349000Y-78510000D01*
X113389000Y-76430000D02*
X113389000Y-72886000D01*
X113389000Y-82054000D02*
X113389000Y-78510000D01*
X113429000Y-76430000D02*
X113429000Y-72867000D01*
X113429000Y-82073000D02*
X113429000Y-78510000D01*
X113469000Y-76430000D02*
X113469000Y-72849000D01*
X113469000Y-82091000D02*
X113469000Y-78510000D01*
X113509000Y-76430000D02*
X113509000Y-72831000D01*
X113509000Y-82109000D02*
X113509000Y-78510000D01*
X113549000Y-76430000D02*
X113549000Y-72813000D01*
X113549000Y-82127000D02*
X113549000Y-78510000D01*
X113589000Y-76430000D02*
X113589000Y-72796000D01*
X113589000Y-82144000D02*
X113589000Y-78510000D01*
X113629000Y-76430000D02*
X113629000Y-72780000D01*
X113629000Y-82160000D02*
X113629000Y-78510000D01*
X113669000Y-76430000D02*
X113669000Y-72763000D01*
X113669000Y-82177000D02*
X113669000Y-78510000D01*
X113709000Y-76430000D02*
X113709000Y-72747000D01*
X113709000Y-82193000D02*
X113709000Y-78510000D01*
X113749000Y-76430000D02*
X113749000Y-72732000D01*
X113749000Y-82208000D02*
X113749000Y-78510000D01*
X113789000Y-76430000D02*
X113789000Y-72716000D01*
X113789000Y-82224000D02*
X113789000Y-78510000D01*
X113829000Y-76430000D02*
X113829000Y-72702000D01*
X113829000Y-82238000D02*
X113829000Y-78510000D01*
X113869000Y-76430000D02*
X113869000Y-72687000D01*
X113869000Y-82253000D02*
X113869000Y-78510000D01*
X113909000Y-76430000D02*
X113909000Y-72673000D01*
X113909000Y-82267000D02*
X113909000Y-78510000D01*
X113949000Y-76430000D02*
X113949000Y-72659000D01*
X113949000Y-82281000D02*
X113949000Y-78510000D01*
X113989000Y-76430000D02*
X113989000Y-72646000D01*
X113989000Y-82294000D02*
X113989000Y-78510000D01*
X114029000Y-76430000D02*
X114029000Y-72633000D01*
X114029000Y-82307000D02*
X114029000Y-78510000D01*
X114069000Y-76430000D02*
X114069000Y-72620000D01*
X114069000Y-82320000D02*
X114069000Y-78510000D01*
X114109000Y-76430000D02*
X114109000Y-72608000D01*
X114109000Y-82332000D02*
X114109000Y-78510000D01*
X114149000Y-76430000D02*
X114149000Y-72596000D01*
X114149000Y-82344000D02*
X114149000Y-78510000D01*
X114189000Y-76430000D02*
X114189000Y-72585000D01*
X114189000Y-82355000D02*
X114189000Y-78510000D01*
X114229000Y-76430000D02*
X114229000Y-72573000D01*
X114229000Y-82367000D02*
X114229000Y-78510000D01*
X114269000Y-76430000D02*
X114269000Y-72563000D01*
X114269000Y-82377000D02*
X114269000Y-78510000D01*
X114309000Y-76430000D02*
X114309000Y-72552000D01*
X114309000Y-82388000D02*
X114309000Y-78510000D01*
X114349000Y-76430000D02*
X114349000Y-72542000D01*
X114349000Y-82398000D02*
X114349000Y-78510000D01*
X114389000Y-76430000D02*
X114389000Y-72532000D01*
X114389000Y-82408000D02*
X114389000Y-78510000D01*
X114429000Y-76430000D02*
X114429000Y-72523000D01*
X114429000Y-82417000D02*
X114429000Y-78510000D01*
X114469000Y-76430000D02*
X114469000Y-72514000D01*
X114469000Y-82426000D02*
X114469000Y-78510000D01*
X114509000Y-76430000D02*
X114509000Y-72505000D01*
X114509000Y-82435000D02*
X114509000Y-78510000D01*
X114549000Y-76430000D02*
X114549000Y-72496000D01*
X114549000Y-82444000D02*
X114549000Y-78510000D01*
X114589000Y-76430000D02*
X114589000Y-72488000D01*
X114589000Y-82452000D02*
X114589000Y-78510000D01*
X114629000Y-76430000D02*
X114629000Y-72480000D01*
X114629000Y-82460000D02*
X114629000Y-78510000D01*
X114669000Y-76430000D02*
X114669000Y-72473000D01*
X114669000Y-82467000D02*
X114669000Y-78510000D01*
X114709000Y-76430000D02*
X114709000Y-72466000D01*
X114709000Y-82474000D02*
X114709000Y-78510000D01*
X114749000Y-76430000D02*
X114749000Y-72459000D01*
X114749000Y-82481000D02*
X114749000Y-78510000D01*
X114789000Y-76430000D02*
X114789000Y-72452000D01*
X114789000Y-82488000D02*
X114789000Y-78510000D01*
X114829000Y-76430000D02*
X114829000Y-72446000D01*
X114829000Y-82494000D02*
X114829000Y-78510000D01*
X114869000Y-76430000D02*
X114869000Y-72440000D01*
X114869000Y-82500000D02*
X114869000Y-78510000D01*
X114910000Y-76430000D02*
X114910000Y-72435000D01*
X114910000Y-82505000D02*
X114910000Y-78510000D01*
X114950000Y-76430000D02*
X114950000Y-72430000D01*
X114950000Y-82510000D02*
X114950000Y-78510000D01*
X114990000Y-76430000D02*
X114990000Y-72425000D01*
X114990000Y-82515000D02*
X114990000Y-78510000D01*
X115030000Y-76430000D02*
X115030000Y-72420000D01*
X115030000Y-82520000D02*
X115030000Y-78510000D01*
X115070000Y-76430000D02*
X115070000Y-72416000D01*
X115070000Y-82524000D02*
X115070000Y-78510000D01*
X115110000Y-76430000D02*
X115110000Y-72412000D01*
X115110000Y-82528000D02*
X115110000Y-78510000D01*
X115150000Y-76430000D02*
X115150000Y-72408000D01*
X115150000Y-82532000D02*
X115150000Y-78510000D01*
X115190000Y-76430000D02*
X115190000Y-72405000D01*
X115190000Y-82535000D02*
X115190000Y-78510000D01*
X115230000Y-76430000D02*
X115230000Y-72402000D01*
X115230000Y-82538000D02*
X115230000Y-78510000D01*
X115270000Y-76430000D02*
X115270000Y-72400000D01*
X115270000Y-82540000D02*
X115270000Y-78510000D01*
X115310000Y-76430000D02*
X115310000Y-72397000D01*
X115310000Y-82543000D02*
X115310000Y-78510000D01*
X115350000Y-76430000D02*
X115350000Y-72395000D01*
X115350000Y-82545000D02*
X115350000Y-78510000D01*
X115390000Y-82547000D02*
X115390000Y-72393000D01*
X115430000Y-82548000D02*
X115430000Y-72392000D01*
X115470000Y-82549000D02*
X115470000Y-72391000D01*
X115510000Y-82550000D02*
X115510000Y-72390000D01*
X115550000Y-82550000D02*
X115550000Y-72390000D01*
X115590000Y-82550000D02*
X115590000Y-72390000D01*
X120710000Y-77470000D02*
G75*
G03X120710000Y-77470000I-5120000J0D01*
G01*
X143945954Y-74095000D02*
X143945954Y-75095000D01*
X143445954Y-74595000D02*
X144445954Y-74595000D01*
X154006600Y-76871000D02*
X154006600Y-78069000D01*
X153966600Y-76608000D02*
X153966600Y-78332000D01*
X153926600Y-76408000D02*
X153926600Y-78532000D01*
X153886600Y-76240000D02*
X153886600Y-78700000D01*
X153846600Y-76092000D02*
X153846600Y-78848000D01*
X153806600Y-75960000D02*
X153806600Y-78980000D01*
X153766600Y-75840000D02*
X153766600Y-79100000D01*
X153726600Y-75728000D02*
X153726600Y-79212000D01*
X153686600Y-75624000D02*
X153686600Y-79316000D01*
X153646600Y-75526000D02*
X153646600Y-79414000D01*
X153606600Y-75433000D02*
X153606600Y-79507000D01*
X153566600Y-75345000D02*
X153566600Y-79595000D01*
X153526600Y-75261000D02*
X153526600Y-79679000D01*
X153486600Y-75181000D02*
X153486600Y-79759000D01*
X153446600Y-75105000D02*
X153446600Y-79835000D01*
X153406600Y-75031000D02*
X153406600Y-79909000D01*
X153366600Y-74960000D02*
X153366600Y-79980000D01*
X153326600Y-74891000D02*
X153326600Y-80049000D01*
X153286600Y-74825000D02*
X153286600Y-80115000D01*
X153246600Y-74761000D02*
X153246600Y-80179000D01*
X153206600Y-74700000D02*
X153206600Y-80240000D01*
X153166600Y-74640000D02*
X153166600Y-80300000D01*
X153126600Y-74581000D02*
X153126600Y-80359000D01*
X153086600Y-74525000D02*
X153086600Y-80415000D01*
X153046600Y-74470000D02*
X153046600Y-80470000D01*
X153006600Y-74416000D02*
X153006600Y-80524000D01*
X152966600Y-74364000D02*
X152966600Y-80576000D01*
X152926600Y-74314000D02*
X152926600Y-80626000D01*
X152886600Y-74264000D02*
X152886600Y-80676000D01*
X152846600Y-74216000D02*
X152846600Y-80724000D01*
X152806600Y-74169000D02*
X152806600Y-80771000D01*
X152766600Y-74123000D02*
X152766600Y-80817000D01*
X152726600Y-74078000D02*
X152726600Y-80862000D01*
X152686600Y-74034000D02*
X152686600Y-80906000D01*
X152646600Y-73992000D02*
X152646600Y-80948000D01*
X152606600Y-73950000D02*
X152606600Y-80990000D01*
X152566600Y-73909000D02*
X152566600Y-81031000D01*
X152526600Y-73869000D02*
X152526600Y-81071000D01*
X152486600Y-73830000D02*
X152486600Y-81110000D01*
X152446600Y-73791000D02*
X152446600Y-81149000D01*
X152406600Y-73754000D02*
X152406600Y-81186000D01*
X152366600Y-73717000D02*
X152366600Y-81223000D01*
X152326600Y-73681000D02*
X152326600Y-81259000D01*
X152286600Y-73646000D02*
X152286600Y-81294000D01*
X152246600Y-73612000D02*
X152246600Y-81328000D01*
X152206600Y-73578000D02*
X152206600Y-81362000D01*
X152166600Y-73545000D02*
X152166600Y-81395000D01*
X152126600Y-73513000D02*
X152126600Y-81427000D01*
X152086600Y-73481000D02*
X152086600Y-81459000D01*
X152046600Y-73450000D02*
X152046600Y-81490000D01*
X152006600Y-73420000D02*
X152006600Y-81520000D01*
X151966600Y-73390000D02*
X151966600Y-81550000D01*
X151926600Y-73360000D02*
X151926600Y-81580000D01*
X151886600Y-73332000D02*
X151886600Y-81608000D01*
X151846600Y-73304000D02*
X151846600Y-81636000D01*
X151806600Y-73276000D02*
X151806600Y-81664000D01*
X151766600Y-73249000D02*
X151766600Y-81691000D01*
X151726600Y-73223000D02*
X151726600Y-81717000D01*
X151686600Y-73197000D02*
X151686600Y-81743000D01*
X151646600Y-73172000D02*
X151646600Y-81768000D01*
X151606600Y-73147000D02*
X151606600Y-81793000D01*
X151566600Y-73123000D02*
X151566600Y-81817000D01*
X151526600Y-73099000D02*
X151526600Y-81841000D01*
X151486600Y-73075000D02*
X151486600Y-81865000D01*
X151446600Y-73053000D02*
X151446600Y-81887000D01*
X151406600Y-73030000D02*
X151406600Y-81910000D01*
X151366600Y-73008000D02*
X151366600Y-81932000D01*
X151326600Y-72987000D02*
X151326600Y-81953000D01*
X151286600Y-72966000D02*
X151286600Y-81974000D01*
X151246600Y-72945000D02*
X151246600Y-81995000D01*
X151206600Y-78510000D02*
X151206600Y-82015000D01*
X151206600Y-72925000D02*
X151206600Y-76430000D01*
X151166600Y-78510000D02*
X151166600Y-82034000D01*
X151166600Y-72906000D02*
X151166600Y-76430000D01*
X151126600Y-78510000D02*
X151126600Y-82054000D01*
X151126600Y-72886000D02*
X151126600Y-76430000D01*
X151086600Y-78510000D02*
X151086600Y-82073000D01*
X151086600Y-72867000D02*
X151086600Y-76430000D01*
X151046600Y-78510000D02*
X151046600Y-82091000D01*
X151046600Y-72849000D02*
X151046600Y-76430000D01*
X151006600Y-78510000D02*
X151006600Y-82109000D01*
X151006600Y-72831000D02*
X151006600Y-76430000D01*
X150966600Y-78510000D02*
X150966600Y-82127000D01*
X150966600Y-72813000D02*
X150966600Y-76430000D01*
X150926600Y-78510000D02*
X150926600Y-82144000D01*
X150926600Y-72796000D02*
X150926600Y-76430000D01*
X150886600Y-78510000D02*
X150886600Y-82160000D01*
X150886600Y-72780000D02*
X150886600Y-76430000D01*
X150846600Y-78510000D02*
X150846600Y-82177000D01*
X150846600Y-72763000D02*
X150846600Y-76430000D01*
X150806600Y-78510000D02*
X150806600Y-82193000D01*
X150806600Y-72747000D02*
X150806600Y-76430000D01*
X150766600Y-78510000D02*
X150766600Y-82208000D01*
X150766600Y-72732000D02*
X150766600Y-76430000D01*
X150726600Y-78510000D02*
X150726600Y-82224000D01*
X150726600Y-72716000D02*
X150726600Y-76430000D01*
X150686600Y-78510000D02*
X150686600Y-82238000D01*
X150686600Y-72702000D02*
X150686600Y-76430000D01*
X150646600Y-78510000D02*
X150646600Y-82253000D01*
X150646600Y-72687000D02*
X150646600Y-76430000D01*
X150606600Y-78510000D02*
X150606600Y-82267000D01*
X150606600Y-72673000D02*
X150606600Y-76430000D01*
X150566600Y-78510000D02*
X150566600Y-82281000D01*
X150566600Y-72659000D02*
X150566600Y-76430000D01*
X150526600Y-78510000D02*
X150526600Y-82294000D01*
X150526600Y-72646000D02*
X150526600Y-76430000D01*
X150486600Y-78510000D02*
X150486600Y-82307000D01*
X150486600Y-72633000D02*
X150486600Y-76430000D01*
X150446600Y-78510000D02*
X150446600Y-82320000D01*
X150446600Y-72620000D02*
X150446600Y-76430000D01*
X150406600Y-78510000D02*
X150406600Y-82332000D01*
X150406600Y-72608000D02*
X150406600Y-76430000D01*
X150366600Y-78510000D02*
X150366600Y-82344000D01*
X150366600Y-72596000D02*
X150366600Y-76430000D01*
X150326600Y-78510000D02*
X150326600Y-82355000D01*
X150326600Y-72585000D02*
X150326600Y-76430000D01*
X150286600Y-78510000D02*
X150286600Y-82367000D01*
X150286600Y-72573000D02*
X150286600Y-76430000D01*
X150246600Y-78510000D02*
X150246600Y-82377000D01*
X150246600Y-72563000D02*
X150246600Y-76430000D01*
X150206600Y-78510000D02*
X150206600Y-82388000D01*
X150206600Y-72552000D02*
X150206600Y-76430000D01*
X150166600Y-78510000D02*
X150166600Y-82398000D01*
X150166600Y-72542000D02*
X150166600Y-76430000D01*
X150126600Y-78510000D02*
X150126600Y-82408000D01*
X150126600Y-72532000D02*
X150126600Y-76430000D01*
X150086600Y-78510000D02*
X150086600Y-82417000D01*
X150086600Y-72523000D02*
X150086600Y-76430000D01*
X150046600Y-78510000D02*
X150046600Y-82426000D01*
X150046600Y-72514000D02*
X150046600Y-76430000D01*
X150006600Y-78510000D02*
X150006600Y-82435000D01*
X150006600Y-72505000D02*
X150006600Y-76430000D01*
X149966600Y-78510000D02*
X149966600Y-82444000D01*
X149966600Y-72496000D02*
X149966600Y-76430000D01*
X149926600Y-78510000D02*
X149926600Y-82452000D01*
X149926600Y-72488000D02*
X149926600Y-76430000D01*
X149886600Y-78510000D02*
X149886600Y-82460000D01*
X149886600Y-72480000D02*
X149886600Y-76430000D01*
X149846600Y-78510000D02*
X149846600Y-82467000D01*
X149846600Y-72473000D02*
X149846600Y-76430000D01*
X149806600Y-78510000D02*
X149806600Y-82474000D01*
X149806600Y-72466000D02*
X149806600Y-76430000D01*
X149766600Y-78510000D02*
X149766600Y-82481000D01*
X149766600Y-72459000D02*
X149766600Y-76430000D01*
X149726600Y-78510000D02*
X149726600Y-82488000D01*
X149726600Y-72452000D02*
X149726600Y-76430000D01*
X149686600Y-78510000D02*
X149686600Y-82494000D01*
X149686600Y-72446000D02*
X149686600Y-76430000D01*
X149646600Y-78510000D02*
X149646600Y-82500000D01*
X149646600Y-72440000D02*
X149646600Y-76430000D01*
X149605600Y-78510000D02*
X149605600Y-82505000D01*
X149605600Y-72435000D02*
X149605600Y-76430000D01*
X149565600Y-78510000D02*
X149565600Y-82510000D01*
X149565600Y-72430000D02*
X149565600Y-76430000D01*
X149525600Y-78510000D02*
X149525600Y-82515000D01*
X149525600Y-72425000D02*
X149525600Y-76430000D01*
X149485600Y-78510000D02*
X149485600Y-82520000D01*
X149485600Y-72420000D02*
X149485600Y-76430000D01*
X149445600Y-78510000D02*
X149445600Y-82524000D01*
X149445600Y-72416000D02*
X149445600Y-76430000D01*
X149405600Y-78510000D02*
X149405600Y-82528000D01*
X149405600Y-72412000D02*
X149405600Y-76430000D01*
X149365600Y-78510000D02*
X149365600Y-82532000D01*
X149365600Y-72408000D02*
X149365600Y-76430000D01*
X149325600Y-78510000D02*
X149325600Y-82535000D01*
X149325600Y-72405000D02*
X149325600Y-76430000D01*
X149285600Y-78510000D02*
X149285600Y-82538000D01*
X149285600Y-72402000D02*
X149285600Y-76430000D01*
X149245600Y-78510000D02*
X149245600Y-82540000D01*
X149245600Y-72400000D02*
X149245600Y-76430000D01*
X149205600Y-78510000D02*
X149205600Y-82543000D01*
X149205600Y-72397000D02*
X149205600Y-76430000D01*
X149165600Y-78510000D02*
X149165600Y-82545000D01*
X149165600Y-72395000D02*
X149165600Y-76430000D01*
X149125600Y-72393000D02*
X149125600Y-82547000D01*
X149085600Y-72392000D02*
X149085600Y-82548000D01*
X149045600Y-72391000D02*
X149045600Y-82549000D01*
X149005600Y-72390000D02*
X149005600Y-82550000D01*
X148965600Y-72390000D02*
X148965600Y-82550000D01*
X148925600Y-72390000D02*
X148925600Y-82550000D01*
X154045600Y-77470000D02*
G75*
G03X154045600Y-77470000I-5120000J0D01*
G01*
X131999646Y-80845000D02*
X131999646Y-79845000D01*
X132499646Y-80345000D02*
X131499646Y-80345000D01*
X121939000Y-78069000D02*
X121939000Y-76871000D01*
X121979000Y-78332000D02*
X121979000Y-76608000D01*
X122019000Y-78532000D02*
X122019000Y-76408000D01*
X122059000Y-78700000D02*
X122059000Y-76240000D01*
X122099000Y-78848000D02*
X122099000Y-76092000D01*
X122139000Y-78980000D02*
X122139000Y-75960000D01*
X122179000Y-79100000D02*
X122179000Y-75840000D01*
X122219000Y-79212000D02*
X122219000Y-75728000D01*
X122259000Y-79316000D02*
X122259000Y-75624000D01*
X122299000Y-79414000D02*
X122299000Y-75526000D01*
X122339000Y-79507000D02*
X122339000Y-75433000D01*
X122379000Y-79595000D02*
X122379000Y-75345000D01*
X122419000Y-79679000D02*
X122419000Y-75261000D01*
X122459000Y-79759000D02*
X122459000Y-75181000D01*
X122499000Y-79835000D02*
X122499000Y-75105000D01*
X122539000Y-79909000D02*
X122539000Y-75031000D01*
X122579000Y-79980000D02*
X122579000Y-74960000D01*
X122619000Y-80049000D02*
X122619000Y-74891000D01*
X122659000Y-80115000D02*
X122659000Y-74825000D01*
X122699000Y-80179000D02*
X122699000Y-74761000D01*
X122739000Y-80240000D02*
X122739000Y-74700000D01*
X122779000Y-80300000D02*
X122779000Y-74640000D01*
X122819000Y-80359000D02*
X122819000Y-74581000D01*
X122859000Y-80415000D02*
X122859000Y-74525000D01*
X122899000Y-80470000D02*
X122899000Y-74470000D01*
X122939000Y-80524000D02*
X122939000Y-74416000D01*
X122979000Y-80576000D02*
X122979000Y-74364000D01*
X123019000Y-80626000D02*
X123019000Y-74314000D01*
X123059000Y-80676000D02*
X123059000Y-74264000D01*
X123099000Y-80724000D02*
X123099000Y-74216000D01*
X123139000Y-80771000D02*
X123139000Y-74169000D01*
X123179000Y-80817000D02*
X123179000Y-74123000D01*
X123219000Y-80862000D02*
X123219000Y-74078000D01*
X123259000Y-80906000D02*
X123259000Y-74034000D01*
X123299000Y-80948000D02*
X123299000Y-73992000D01*
X123339000Y-80990000D02*
X123339000Y-73950000D01*
X123379000Y-81031000D02*
X123379000Y-73909000D01*
X123419000Y-81071000D02*
X123419000Y-73869000D01*
X123459000Y-81110000D02*
X123459000Y-73830000D01*
X123499000Y-81149000D02*
X123499000Y-73791000D01*
X123539000Y-81186000D02*
X123539000Y-73754000D01*
X123579000Y-81223000D02*
X123579000Y-73717000D01*
X123619000Y-81259000D02*
X123619000Y-73681000D01*
X123659000Y-81294000D02*
X123659000Y-73646000D01*
X123699000Y-81328000D02*
X123699000Y-73612000D01*
X123739000Y-81362000D02*
X123739000Y-73578000D01*
X123779000Y-81395000D02*
X123779000Y-73545000D01*
X123819000Y-81427000D02*
X123819000Y-73513000D01*
X123859000Y-81459000D02*
X123859000Y-73481000D01*
X123899000Y-81490000D02*
X123899000Y-73450000D01*
X123939000Y-81520000D02*
X123939000Y-73420000D01*
X123979000Y-81550000D02*
X123979000Y-73390000D01*
X124019000Y-81580000D02*
X124019000Y-73360000D01*
X124059000Y-81608000D02*
X124059000Y-73332000D01*
X124099000Y-81636000D02*
X124099000Y-73304000D01*
X124139000Y-81664000D02*
X124139000Y-73276000D01*
X124179000Y-81691000D02*
X124179000Y-73249000D01*
X124219000Y-81717000D02*
X124219000Y-73223000D01*
X124259000Y-81743000D02*
X124259000Y-73197000D01*
X124299000Y-81768000D02*
X124299000Y-73172000D01*
X124339000Y-81793000D02*
X124339000Y-73147000D01*
X124379000Y-81817000D02*
X124379000Y-73123000D01*
X124419000Y-81841000D02*
X124419000Y-73099000D01*
X124459000Y-81865000D02*
X124459000Y-73075000D01*
X124499000Y-81887000D02*
X124499000Y-73053000D01*
X124539000Y-81910000D02*
X124539000Y-73030000D01*
X124579000Y-81932000D02*
X124579000Y-73008000D01*
X124619000Y-81953000D02*
X124619000Y-72987000D01*
X124659000Y-81974000D02*
X124659000Y-72966000D01*
X124699000Y-81995000D02*
X124699000Y-72945000D01*
X124739000Y-76430000D02*
X124739000Y-72925000D01*
X124739000Y-82015000D02*
X124739000Y-78510000D01*
X124779000Y-76430000D02*
X124779000Y-72906000D01*
X124779000Y-82034000D02*
X124779000Y-78510000D01*
X124819000Y-76430000D02*
X124819000Y-72886000D01*
X124819000Y-82054000D02*
X124819000Y-78510000D01*
X124859000Y-76430000D02*
X124859000Y-72867000D01*
X124859000Y-82073000D02*
X124859000Y-78510000D01*
X124899000Y-76430000D02*
X124899000Y-72849000D01*
X124899000Y-82091000D02*
X124899000Y-78510000D01*
X124939000Y-76430000D02*
X124939000Y-72831000D01*
X124939000Y-82109000D02*
X124939000Y-78510000D01*
X124979000Y-76430000D02*
X124979000Y-72813000D01*
X124979000Y-82127000D02*
X124979000Y-78510000D01*
X125019000Y-76430000D02*
X125019000Y-72796000D01*
X125019000Y-82144000D02*
X125019000Y-78510000D01*
X125059000Y-76430000D02*
X125059000Y-72780000D01*
X125059000Y-82160000D02*
X125059000Y-78510000D01*
X125099000Y-76430000D02*
X125099000Y-72763000D01*
X125099000Y-82177000D02*
X125099000Y-78510000D01*
X125139000Y-76430000D02*
X125139000Y-72747000D01*
X125139000Y-82193000D02*
X125139000Y-78510000D01*
X125179000Y-76430000D02*
X125179000Y-72732000D01*
X125179000Y-82208000D02*
X125179000Y-78510000D01*
X125219000Y-76430000D02*
X125219000Y-72716000D01*
X125219000Y-82224000D02*
X125219000Y-78510000D01*
X125259000Y-76430000D02*
X125259000Y-72702000D01*
X125259000Y-82238000D02*
X125259000Y-78510000D01*
X125299000Y-76430000D02*
X125299000Y-72687000D01*
X125299000Y-82253000D02*
X125299000Y-78510000D01*
X125339000Y-76430000D02*
X125339000Y-72673000D01*
X125339000Y-82267000D02*
X125339000Y-78510000D01*
X125379000Y-76430000D02*
X125379000Y-72659000D01*
X125379000Y-82281000D02*
X125379000Y-78510000D01*
X125419000Y-76430000D02*
X125419000Y-72646000D01*
X125419000Y-82294000D02*
X125419000Y-78510000D01*
X125459000Y-76430000D02*
X125459000Y-72633000D01*
X125459000Y-82307000D02*
X125459000Y-78510000D01*
X125499000Y-76430000D02*
X125499000Y-72620000D01*
X125499000Y-82320000D02*
X125499000Y-78510000D01*
X125539000Y-76430000D02*
X125539000Y-72608000D01*
X125539000Y-82332000D02*
X125539000Y-78510000D01*
X125579000Y-76430000D02*
X125579000Y-72596000D01*
X125579000Y-82344000D02*
X125579000Y-78510000D01*
X125619000Y-76430000D02*
X125619000Y-72585000D01*
X125619000Y-82355000D02*
X125619000Y-78510000D01*
X125659000Y-76430000D02*
X125659000Y-72573000D01*
X125659000Y-82367000D02*
X125659000Y-78510000D01*
X125699000Y-76430000D02*
X125699000Y-72563000D01*
X125699000Y-82377000D02*
X125699000Y-78510000D01*
X125739000Y-76430000D02*
X125739000Y-72552000D01*
X125739000Y-82388000D02*
X125739000Y-78510000D01*
X125779000Y-76430000D02*
X125779000Y-72542000D01*
X125779000Y-82398000D02*
X125779000Y-78510000D01*
X125819000Y-76430000D02*
X125819000Y-72532000D01*
X125819000Y-82408000D02*
X125819000Y-78510000D01*
X125859000Y-76430000D02*
X125859000Y-72523000D01*
X125859000Y-82417000D02*
X125859000Y-78510000D01*
X125899000Y-76430000D02*
X125899000Y-72514000D01*
X125899000Y-82426000D02*
X125899000Y-78510000D01*
X125939000Y-76430000D02*
X125939000Y-72505000D01*
X125939000Y-82435000D02*
X125939000Y-78510000D01*
X125979000Y-76430000D02*
X125979000Y-72496000D01*
X125979000Y-82444000D02*
X125979000Y-78510000D01*
X126019000Y-76430000D02*
X126019000Y-72488000D01*
X126019000Y-82452000D02*
X126019000Y-78510000D01*
X126059000Y-76430000D02*
X126059000Y-72480000D01*
X126059000Y-82460000D02*
X126059000Y-78510000D01*
X126099000Y-76430000D02*
X126099000Y-72473000D01*
X126099000Y-82467000D02*
X126099000Y-78510000D01*
X126139000Y-76430000D02*
X126139000Y-72466000D01*
X126139000Y-82474000D02*
X126139000Y-78510000D01*
X126179000Y-76430000D02*
X126179000Y-72459000D01*
X126179000Y-82481000D02*
X126179000Y-78510000D01*
X126219000Y-76430000D02*
X126219000Y-72452000D01*
X126219000Y-82488000D02*
X126219000Y-78510000D01*
X126259000Y-76430000D02*
X126259000Y-72446000D01*
X126259000Y-82494000D02*
X126259000Y-78510000D01*
X126299000Y-76430000D02*
X126299000Y-72440000D01*
X126299000Y-82500000D02*
X126299000Y-78510000D01*
X126340000Y-76430000D02*
X126340000Y-72435000D01*
X126340000Y-82505000D02*
X126340000Y-78510000D01*
X126380000Y-76430000D02*
X126380000Y-72430000D01*
X126380000Y-82510000D02*
X126380000Y-78510000D01*
X126420000Y-76430000D02*
X126420000Y-72425000D01*
X126420000Y-82515000D02*
X126420000Y-78510000D01*
X126460000Y-76430000D02*
X126460000Y-72420000D01*
X126460000Y-82520000D02*
X126460000Y-78510000D01*
X126500000Y-76430000D02*
X126500000Y-72416000D01*
X126500000Y-82524000D02*
X126500000Y-78510000D01*
X126540000Y-76430000D02*
X126540000Y-72412000D01*
X126540000Y-82528000D02*
X126540000Y-78510000D01*
X126580000Y-76430000D02*
X126580000Y-72408000D01*
X126580000Y-82532000D02*
X126580000Y-78510000D01*
X126620000Y-76430000D02*
X126620000Y-72405000D01*
X126620000Y-82535000D02*
X126620000Y-78510000D01*
X126660000Y-76430000D02*
X126660000Y-72402000D01*
X126660000Y-82538000D02*
X126660000Y-78510000D01*
X126700000Y-76430000D02*
X126700000Y-72400000D01*
X126700000Y-82540000D02*
X126700000Y-78510000D01*
X126740000Y-76430000D02*
X126740000Y-72397000D01*
X126740000Y-82543000D02*
X126740000Y-78510000D01*
X126780000Y-76430000D02*
X126780000Y-72395000D01*
X126780000Y-82545000D02*
X126780000Y-78510000D01*
X126820000Y-82547000D02*
X126820000Y-72393000D01*
X126860000Y-82548000D02*
X126860000Y-72392000D01*
X126900000Y-82549000D02*
X126900000Y-72391000D01*
X126940000Y-82550000D02*
X126940000Y-72390000D01*
X126980000Y-82550000D02*
X126980000Y-72390000D01*
X127020000Y-82550000D02*
X127020000Y-72390000D01*
X132140000Y-77470000D02*
G75*
G03X132140000Y-77470000I-5120000J0D01*
G01*
X131999646Y-108785000D02*
X131999646Y-107785000D01*
X132499646Y-108285000D02*
X131499646Y-108285000D01*
X121939000Y-106009000D02*
X121939000Y-104811000D01*
X121979000Y-106272000D02*
X121979000Y-104548000D01*
X122019000Y-106472000D02*
X122019000Y-104348000D01*
X122059000Y-106640000D02*
X122059000Y-104180000D01*
X122099000Y-106788000D02*
X122099000Y-104032000D01*
X122139000Y-106920000D02*
X122139000Y-103900000D01*
X122179000Y-107040000D02*
X122179000Y-103780000D01*
X122219000Y-107152000D02*
X122219000Y-103668000D01*
X122259000Y-107256000D02*
X122259000Y-103564000D01*
X122299000Y-107354000D02*
X122299000Y-103466000D01*
X122339000Y-107447000D02*
X122339000Y-103373000D01*
X122379000Y-107535000D02*
X122379000Y-103285000D01*
X122419000Y-107619000D02*
X122419000Y-103201000D01*
X122459000Y-107699000D02*
X122459000Y-103121000D01*
X122499000Y-107775000D02*
X122499000Y-103045000D01*
X122539000Y-107849000D02*
X122539000Y-102971000D01*
X122579000Y-107920000D02*
X122579000Y-102900000D01*
X122619000Y-107989000D02*
X122619000Y-102831000D01*
X122659000Y-108055000D02*
X122659000Y-102765000D01*
X122699000Y-108119000D02*
X122699000Y-102701000D01*
X122739000Y-108180000D02*
X122739000Y-102640000D01*
X122779000Y-108240000D02*
X122779000Y-102580000D01*
X122819000Y-108299000D02*
X122819000Y-102521000D01*
X122859000Y-108355000D02*
X122859000Y-102465000D01*
X122899000Y-108410000D02*
X122899000Y-102410000D01*
X122939000Y-108464000D02*
X122939000Y-102356000D01*
X122979000Y-108516000D02*
X122979000Y-102304000D01*
X123019000Y-108566000D02*
X123019000Y-102254000D01*
X123059000Y-108616000D02*
X123059000Y-102204000D01*
X123099000Y-108664000D02*
X123099000Y-102156000D01*
X123139000Y-108711000D02*
X123139000Y-102109000D01*
X123179000Y-108757000D02*
X123179000Y-102063000D01*
X123219000Y-108802000D02*
X123219000Y-102018000D01*
X123259000Y-108846000D02*
X123259000Y-101974000D01*
X123299000Y-108888000D02*
X123299000Y-101932000D01*
X123339000Y-108930000D02*
X123339000Y-101890000D01*
X123379000Y-108971000D02*
X123379000Y-101849000D01*
X123419000Y-109011000D02*
X123419000Y-101809000D01*
X123459000Y-109050000D02*
X123459000Y-101770000D01*
X123499000Y-109089000D02*
X123499000Y-101731000D01*
X123539000Y-109126000D02*
X123539000Y-101694000D01*
X123579000Y-109163000D02*
X123579000Y-101657000D01*
X123619000Y-109199000D02*
X123619000Y-101621000D01*
X123659000Y-109234000D02*
X123659000Y-101586000D01*
X123699000Y-109268000D02*
X123699000Y-101552000D01*
X123739000Y-109302000D02*
X123739000Y-101518000D01*
X123779000Y-109335000D02*
X123779000Y-101485000D01*
X123819000Y-109367000D02*
X123819000Y-101453000D01*
X123859000Y-109399000D02*
X123859000Y-101421000D01*
X123899000Y-109430000D02*
X123899000Y-101390000D01*
X123939000Y-109460000D02*
X123939000Y-101360000D01*
X123979000Y-109490000D02*
X123979000Y-101330000D01*
X124019000Y-109520000D02*
X124019000Y-101300000D01*
X124059000Y-109548000D02*
X124059000Y-101272000D01*
X124099000Y-109576000D02*
X124099000Y-101244000D01*
X124139000Y-109604000D02*
X124139000Y-101216000D01*
X124179000Y-109631000D02*
X124179000Y-101189000D01*
X124219000Y-109657000D02*
X124219000Y-101163000D01*
X124259000Y-109683000D02*
X124259000Y-101137000D01*
X124299000Y-109708000D02*
X124299000Y-101112000D01*
X124339000Y-109733000D02*
X124339000Y-101087000D01*
X124379000Y-109757000D02*
X124379000Y-101063000D01*
X124419000Y-109781000D02*
X124419000Y-101039000D01*
X124459000Y-109805000D02*
X124459000Y-101015000D01*
X124499000Y-109827000D02*
X124499000Y-100993000D01*
X124539000Y-109850000D02*
X124539000Y-100970000D01*
X124579000Y-109872000D02*
X124579000Y-100948000D01*
X124619000Y-109893000D02*
X124619000Y-100927000D01*
X124659000Y-109914000D02*
X124659000Y-100906000D01*
X124699000Y-109935000D02*
X124699000Y-100885000D01*
X124739000Y-104370000D02*
X124739000Y-100865000D01*
X124739000Y-109955000D02*
X124739000Y-106450000D01*
X124779000Y-104370000D02*
X124779000Y-100846000D01*
X124779000Y-109974000D02*
X124779000Y-106450000D01*
X124819000Y-104370000D02*
X124819000Y-100826000D01*
X124819000Y-109994000D02*
X124819000Y-106450000D01*
X124859000Y-104370000D02*
X124859000Y-100807000D01*
X124859000Y-110013000D02*
X124859000Y-106450000D01*
X124899000Y-104370000D02*
X124899000Y-100789000D01*
X124899000Y-110031000D02*
X124899000Y-106450000D01*
X124939000Y-104370000D02*
X124939000Y-100771000D01*
X124939000Y-110049000D02*
X124939000Y-106450000D01*
X124979000Y-104370000D02*
X124979000Y-100753000D01*
X124979000Y-110067000D02*
X124979000Y-106450000D01*
X125019000Y-104370000D02*
X125019000Y-100736000D01*
X125019000Y-110084000D02*
X125019000Y-106450000D01*
X125059000Y-104370000D02*
X125059000Y-100720000D01*
X125059000Y-110100000D02*
X125059000Y-106450000D01*
X125099000Y-104370000D02*
X125099000Y-100703000D01*
X125099000Y-110117000D02*
X125099000Y-106450000D01*
X125139000Y-104370000D02*
X125139000Y-100687000D01*
X125139000Y-110133000D02*
X125139000Y-106450000D01*
X125179000Y-104370000D02*
X125179000Y-100672000D01*
X125179000Y-110148000D02*
X125179000Y-106450000D01*
X125219000Y-104370000D02*
X125219000Y-100656000D01*
X125219000Y-110164000D02*
X125219000Y-106450000D01*
X125259000Y-104370000D02*
X125259000Y-100642000D01*
X125259000Y-110178000D02*
X125259000Y-106450000D01*
X125299000Y-104370000D02*
X125299000Y-100627000D01*
X125299000Y-110193000D02*
X125299000Y-106450000D01*
X125339000Y-104370000D02*
X125339000Y-100613000D01*
X125339000Y-110207000D02*
X125339000Y-106450000D01*
X125379000Y-104370000D02*
X125379000Y-100599000D01*
X125379000Y-110221000D02*
X125379000Y-106450000D01*
X125419000Y-104370000D02*
X125419000Y-100586000D01*
X125419000Y-110234000D02*
X125419000Y-106450000D01*
X125459000Y-104370000D02*
X125459000Y-100573000D01*
X125459000Y-110247000D02*
X125459000Y-106450000D01*
X125499000Y-104370000D02*
X125499000Y-100560000D01*
X125499000Y-110260000D02*
X125499000Y-106450000D01*
X125539000Y-104370000D02*
X125539000Y-100548000D01*
X125539000Y-110272000D02*
X125539000Y-106450000D01*
X125579000Y-104370000D02*
X125579000Y-100536000D01*
X125579000Y-110284000D02*
X125579000Y-106450000D01*
X125619000Y-104370000D02*
X125619000Y-100525000D01*
X125619000Y-110295000D02*
X125619000Y-106450000D01*
X125659000Y-104370000D02*
X125659000Y-100513000D01*
X125659000Y-110307000D02*
X125659000Y-106450000D01*
X125699000Y-104370000D02*
X125699000Y-100503000D01*
X125699000Y-110317000D02*
X125699000Y-106450000D01*
X125739000Y-104370000D02*
X125739000Y-100492000D01*
X125739000Y-110328000D02*
X125739000Y-106450000D01*
X125779000Y-104370000D02*
X125779000Y-100482000D01*
X125779000Y-110338000D02*
X125779000Y-106450000D01*
X125819000Y-104370000D02*
X125819000Y-100472000D01*
X125819000Y-110348000D02*
X125819000Y-106450000D01*
X125859000Y-104370000D02*
X125859000Y-100463000D01*
X125859000Y-110357000D02*
X125859000Y-106450000D01*
X125899000Y-104370000D02*
X125899000Y-100454000D01*
X125899000Y-110366000D02*
X125899000Y-106450000D01*
X125939000Y-104370000D02*
X125939000Y-100445000D01*
X125939000Y-110375000D02*
X125939000Y-106450000D01*
X125979000Y-104370000D02*
X125979000Y-100436000D01*
X125979000Y-110384000D02*
X125979000Y-106450000D01*
X126019000Y-104370000D02*
X126019000Y-100428000D01*
X126019000Y-110392000D02*
X126019000Y-106450000D01*
X126059000Y-104370000D02*
X126059000Y-100420000D01*
X126059000Y-110400000D02*
X126059000Y-106450000D01*
X126099000Y-104370000D02*
X126099000Y-100413000D01*
X126099000Y-110407000D02*
X126099000Y-106450000D01*
X126139000Y-104370000D02*
X126139000Y-100406000D01*
X126139000Y-110414000D02*
X126139000Y-106450000D01*
X126179000Y-104370000D02*
X126179000Y-100399000D01*
X126179000Y-110421000D02*
X126179000Y-106450000D01*
X126219000Y-104370000D02*
X126219000Y-100392000D01*
X126219000Y-110428000D02*
X126219000Y-106450000D01*
X126259000Y-104370000D02*
X126259000Y-100386000D01*
X126259000Y-110434000D02*
X126259000Y-106450000D01*
X126299000Y-104370000D02*
X126299000Y-100380000D01*
X126299000Y-110440000D02*
X126299000Y-106450000D01*
X126340000Y-104370000D02*
X126340000Y-100375000D01*
X126340000Y-110445000D02*
X126340000Y-106450000D01*
X126380000Y-104370000D02*
X126380000Y-100370000D01*
X126380000Y-110450000D02*
X126380000Y-106450000D01*
X126420000Y-104370000D02*
X126420000Y-100365000D01*
X126420000Y-110455000D02*
X126420000Y-106450000D01*
X126460000Y-104370000D02*
X126460000Y-100360000D01*
X126460000Y-110460000D02*
X126460000Y-106450000D01*
X126500000Y-104370000D02*
X126500000Y-100356000D01*
X126500000Y-110464000D02*
X126500000Y-106450000D01*
X126540000Y-104370000D02*
X126540000Y-100352000D01*
X126540000Y-110468000D02*
X126540000Y-106450000D01*
X126580000Y-104370000D02*
X126580000Y-100348000D01*
X126580000Y-110472000D02*
X126580000Y-106450000D01*
X126620000Y-104370000D02*
X126620000Y-100345000D01*
X126620000Y-110475000D02*
X126620000Y-106450000D01*
X126660000Y-104370000D02*
X126660000Y-100342000D01*
X126660000Y-110478000D02*
X126660000Y-106450000D01*
X126700000Y-104370000D02*
X126700000Y-100340000D01*
X126700000Y-110480000D02*
X126700000Y-106450000D01*
X126740000Y-104370000D02*
X126740000Y-100337000D01*
X126740000Y-110483000D02*
X126740000Y-106450000D01*
X126780000Y-104370000D02*
X126780000Y-100335000D01*
X126780000Y-110485000D02*
X126780000Y-106450000D01*
X126820000Y-110487000D02*
X126820000Y-100333000D01*
X126860000Y-110488000D02*
X126860000Y-100332000D01*
X126900000Y-110489000D02*
X126900000Y-100331000D01*
X126940000Y-110490000D02*
X126940000Y-100330000D01*
X126980000Y-110490000D02*
X126980000Y-100330000D01*
X127020000Y-110490000D02*
X127020000Y-100330000D01*
X132140000Y-105410000D02*
G75*
G03X132140000Y-105410000I-5120000J0D01*
G01*
X156290354Y-88065000D02*
X156290354Y-89065000D01*
X155790354Y-88565000D02*
X156790354Y-88565000D01*
X166351000Y-90841000D02*
X166351000Y-92039000D01*
X166311000Y-90578000D02*
X166311000Y-92302000D01*
X166271000Y-90378000D02*
X166271000Y-92502000D01*
X166231000Y-90210000D02*
X166231000Y-92670000D01*
X166191000Y-90062000D02*
X166191000Y-92818000D01*
X166151000Y-89930000D02*
X166151000Y-92950000D01*
X166111000Y-89810000D02*
X166111000Y-93070000D01*
X166071000Y-89698000D02*
X166071000Y-93182000D01*
X166031000Y-89594000D02*
X166031000Y-93286000D01*
X165991000Y-89496000D02*
X165991000Y-93384000D01*
X165951000Y-89403000D02*
X165951000Y-93477000D01*
X165911000Y-89315000D02*
X165911000Y-93565000D01*
X165871000Y-89231000D02*
X165871000Y-93649000D01*
X165831000Y-89151000D02*
X165831000Y-93729000D01*
X165791000Y-89075000D02*
X165791000Y-93805000D01*
X165751000Y-89001000D02*
X165751000Y-93879000D01*
X165711000Y-88930000D02*
X165711000Y-93950000D01*
X165671000Y-88861000D02*
X165671000Y-94019000D01*
X165631000Y-88795000D02*
X165631000Y-94085000D01*
X165591000Y-88731000D02*
X165591000Y-94149000D01*
X165551000Y-88670000D02*
X165551000Y-94210000D01*
X165511000Y-88610000D02*
X165511000Y-94270000D01*
X165471000Y-88551000D02*
X165471000Y-94329000D01*
X165431000Y-88495000D02*
X165431000Y-94385000D01*
X165391000Y-88440000D02*
X165391000Y-94440000D01*
X165351000Y-88386000D02*
X165351000Y-94494000D01*
X165311000Y-88334000D02*
X165311000Y-94546000D01*
X165271000Y-88284000D02*
X165271000Y-94596000D01*
X165231000Y-88234000D02*
X165231000Y-94646000D01*
X165191000Y-88186000D02*
X165191000Y-94694000D01*
X165151000Y-88139000D02*
X165151000Y-94741000D01*
X165111000Y-88093000D02*
X165111000Y-94787000D01*
X165071000Y-88048000D02*
X165071000Y-94832000D01*
X165031000Y-88004000D02*
X165031000Y-94876000D01*
X164991000Y-87962000D02*
X164991000Y-94918000D01*
X164951000Y-87920000D02*
X164951000Y-94960000D01*
X164911000Y-87879000D02*
X164911000Y-95001000D01*
X164871000Y-87839000D02*
X164871000Y-95041000D01*
X164831000Y-87800000D02*
X164831000Y-95080000D01*
X164791000Y-87761000D02*
X164791000Y-95119000D01*
X164751000Y-87724000D02*
X164751000Y-95156000D01*
X164711000Y-87687000D02*
X164711000Y-95193000D01*
X164671000Y-87651000D02*
X164671000Y-95229000D01*
X164631000Y-87616000D02*
X164631000Y-95264000D01*
X164591000Y-87582000D02*
X164591000Y-95298000D01*
X164551000Y-87548000D02*
X164551000Y-95332000D01*
X164511000Y-87515000D02*
X164511000Y-95365000D01*
X164471000Y-87483000D02*
X164471000Y-95397000D01*
X164431000Y-87451000D02*
X164431000Y-95429000D01*
X164391000Y-87420000D02*
X164391000Y-95460000D01*
X164351000Y-87390000D02*
X164351000Y-95490000D01*
X164311000Y-87360000D02*
X164311000Y-95520000D01*
X164271000Y-87330000D02*
X164271000Y-95550000D01*
X164231000Y-87302000D02*
X164231000Y-95578000D01*
X164191000Y-87274000D02*
X164191000Y-95606000D01*
X164151000Y-87246000D02*
X164151000Y-95634000D01*
X164111000Y-87219000D02*
X164111000Y-95661000D01*
X164071000Y-87193000D02*
X164071000Y-95687000D01*
X164031000Y-87167000D02*
X164031000Y-95713000D01*
X163991000Y-87142000D02*
X163991000Y-95738000D01*
X163951000Y-87117000D02*
X163951000Y-95763000D01*
X163911000Y-87093000D02*
X163911000Y-95787000D01*
X163871000Y-87069000D02*
X163871000Y-95811000D01*
X163831000Y-87045000D02*
X163831000Y-95835000D01*
X163791000Y-87023000D02*
X163791000Y-95857000D01*
X163751000Y-87000000D02*
X163751000Y-95880000D01*
X163711000Y-86978000D02*
X163711000Y-95902000D01*
X163671000Y-86957000D02*
X163671000Y-95923000D01*
X163631000Y-86936000D02*
X163631000Y-95944000D01*
X163591000Y-86915000D02*
X163591000Y-95965000D01*
X163551000Y-92480000D02*
X163551000Y-95985000D01*
X163551000Y-86895000D02*
X163551000Y-90400000D01*
X163511000Y-92480000D02*
X163511000Y-96004000D01*
X163511000Y-86876000D02*
X163511000Y-90400000D01*
X163471000Y-92480000D02*
X163471000Y-96024000D01*
X163471000Y-86856000D02*
X163471000Y-90400000D01*
X163431000Y-92480000D02*
X163431000Y-96043000D01*
X163431000Y-86837000D02*
X163431000Y-90400000D01*
X163391000Y-92480000D02*
X163391000Y-96061000D01*
X163391000Y-86819000D02*
X163391000Y-90400000D01*
X163351000Y-92480000D02*
X163351000Y-96079000D01*
X163351000Y-86801000D02*
X163351000Y-90400000D01*
X163311000Y-92480000D02*
X163311000Y-96097000D01*
X163311000Y-86783000D02*
X163311000Y-90400000D01*
X163271000Y-92480000D02*
X163271000Y-96114000D01*
X163271000Y-86766000D02*
X163271000Y-90400000D01*
X163231000Y-92480000D02*
X163231000Y-96130000D01*
X163231000Y-86750000D02*
X163231000Y-90400000D01*
X163191000Y-92480000D02*
X163191000Y-96147000D01*
X163191000Y-86733000D02*
X163191000Y-90400000D01*
X163151000Y-92480000D02*
X163151000Y-96163000D01*
X163151000Y-86717000D02*
X163151000Y-90400000D01*
X163111000Y-92480000D02*
X163111000Y-96178000D01*
X163111000Y-86702000D02*
X163111000Y-90400000D01*
X163071000Y-92480000D02*
X163071000Y-96194000D01*
X163071000Y-86686000D02*
X163071000Y-90400000D01*
X163031000Y-92480000D02*
X163031000Y-96208000D01*
X163031000Y-86672000D02*
X163031000Y-90400000D01*
X162991000Y-92480000D02*
X162991000Y-96223000D01*
X162991000Y-86657000D02*
X162991000Y-90400000D01*
X162951000Y-92480000D02*
X162951000Y-96237000D01*
X162951000Y-86643000D02*
X162951000Y-90400000D01*
X162911000Y-92480000D02*
X162911000Y-96251000D01*
X162911000Y-86629000D02*
X162911000Y-90400000D01*
X162871000Y-92480000D02*
X162871000Y-96264000D01*
X162871000Y-86616000D02*
X162871000Y-90400000D01*
X162831000Y-92480000D02*
X162831000Y-96277000D01*
X162831000Y-86603000D02*
X162831000Y-90400000D01*
X162791000Y-92480000D02*
X162791000Y-96290000D01*
X162791000Y-86590000D02*
X162791000Y-90400000D01*
X162751000Y-92480000D02*
X162751000Y-96302000D01*
X162751000Y-86578000D02*
X162751000Y-90400000D01*
X162711000Y-92480000D02*
X162711000Y-96314000D01*
X162711000Y-86566000D02*
X162711000Y-90400000D01*
X162671000Y-92480000D02*
X162671000Y-96325000D01*
X162671000Y-86555000D02*
X162671000Y-90400000D01*
X162631000Y-92480000D02*
X162631000Y-96337000D01*
X162631000Y-86543000D02*
X162631000Y-90400000D01*
X162591000Y-92480000D02*
X162591000Y-96347000D01*
X162591000Y-86533000D02*
X162591000Y-90400000D01*
X162551000Y-92480000D02*
X162551000Y-96358000D01*
X162551000Y-86522000D02*
X162551000Y-90400000D01*
X162511000Y-92480000D02*
X162511000Y-96368000D01*
X162511000Y-86512000D02*
X162511000Y-90400000D01*
X162471000Y-92480000D02*
X162471000Y-96378000D01*
X162471000Y-86502000D02*
X162471000Y-90400000D01*
X162431000Y-92480000D02*
X162431000Y-96387000D01*
X162431000Y-86493000D02*
X162431000Y-90400000D01*
X162391000Y-92480000D02*
X162391000Y-96396000D01*
X162391000Y-86484000D02*
X162391000Y-90400000D01*
X162351000Y-92480000D02*
X162351000Y-96405000D01*
X162351000Y-86475000D02*
X162351000Y-90400000D01*
X162311000Y-92480000D02*
X162311000Y-96414000D01*
X162311000Y-86466000D02*
X162311000Y-90400000D01*
X162271000Y-92480000D02*
X162271000Y-96422000D01*
X162271000Y-86458000D02*
X162271000Y-90400000D01*
X162231000Y-92480000D02*
X162231000Y-96430000D01*
X162231000Y-86450000D02*
X162231000Y-90400000D01*
X162191000Y-92480000D02*
X162191000Y-96437000D01*
X162191000Y-86443000D02*
X162191000Y-90400000D01*
X162151000Y-92480000D02*
X162151000Y-96444000D01*
X162151000Y-86436000D02*
X162151000Y-90400000D01*
X162111000Y-92480000D02*
X162111000Y-96451000D01*
X162111000Y-86429000D02*
X162111000Y-90400000D01*
X162071000Y-92480000D02*
X162071000Y-96458000D01*
X162071000Y-86422000D02*
X162071000Y-90400000D01*
X162031000Y-92480000D02*
X162031000Y-96464000D01*
X162031000Y-86416000D02*
X162031000Y-90400000D01*
X161991000Y-92480000D02*
X161991000Y-96470000D01*
X161991000Y-86410000D02*
X161991000Y-90400000D01*
X161950000Y-92480000D02*
X161950000Y-96475000D01*
X161950000Y-86405000D02*
X161950000Y-90400000D01*
X161910000Y-92480000D02*
X161910000Y-96480000D01*
X161910000Y-86400000D02*
X161910000Y-90400000D01*
X161870000Y-92480000D02*
X161870000Y-96485000D01*
X161870000Y-86395000D02*
X161870000Y-90400000D01*
X161830000Y-92480000D02*
X161830000Y-96490000D01*
X161830000Y-86390000D02*
X161830000Y-90400000D01*
X161790000Y-92480000D02*
X161790000Y-96494000D01*
X161790000Y-86386000D02*
X161790000Y-90400000D01*
X161750000Y-92480000D02*
X161750000Y-96498000D01*
X161750000Y-86382000D02*
X161750000Y-90400000D01*
X161710000Y-92480000D02*
X161710000Y-96502000D01*
X161710000Y-86378000D02*
X161710000Y-90400000D01*
X161670000Y-92480000D02*
X161670000Y-96505000D01*
X161670000Y-86375000D02*
X161670000Y-90400000D01*
X161630000Y-92480000D02*
X161630000Y-96508000D01*
X161630000Y-86372000D02*
X161630000Y-90400000D01*
X161590000Y-92480000D02*
X161590000Y-96510000D01*
X161590000Y-86370000D02*
X161590000Y-90400000D01*
X161550000Y-92480000D02*
X161550000Y-96513000D01*
X161550000Y-86367000D02*
X161550000Y-90400000D01*
X161510000Y-92480000D02*
X161510000Y-96515000D01*
X161510000Y-86365000D02*
X161510000Y-90400000D01*
X161470000Y-86363000D02*
X161470000Y-96517000D01*
X161430000Y-86362000D02*
X161430000Y-96518000D01*
X161390000Y-86361000D02*
X161390000Y-96519000D01*
X161350000Y-86360000D02*
X161350000Y-96520000D01*
X161310000Y-86360000D02*
X161310000Y-96520000D01*
X161270000Y-86360000D02*
X161270000Y-96520000D01*
X166390000Y-91440000D02*
G75*
G03X166390000Y-91440000I-5120000J0D01*
G01*
X144034854Y-101996900D02*
X144034854Y-102996900D01*
X143534854Y-102496900D02*
X144534854Y-102496900D01*
X154095500Y-104772900D02*
X154095500Y-105970900D01*
X154055500Y-104509900D02*
X154055500Y-106233900D01*
X154015500Y-104309900D02*
X154015500Y-106433900D01*
X153975500Y-104141900D02*
X153975500Y-106601900D01*
X153935500Y-103993900D02*
X153935500Y-106749900D01*
X153895500Y-103861900D02*
X153895500Y-106881900D01*
X153855500Y-103741900D02*
X153855500Y-107001900D01*
X153815500Y-103629900D02*
X153815500Y-107113900D01*
X153775500Y-103525900D02*
X153775500Y-107217900D01*
X153735500Y-103427900D02*
X153735500Y-107315900D01*
X153695500Y-103334900D02*
X153695500Y-107408900D01*
X153655500Y-103246900D02*
X153655500Y-107496900D01*
X153615500Y-103162900D02*
X153615500Y-107580900D01*
X153575500Y-103082900D02*
X153575500Y-107660900D01*
X153535500Y-103006900D02*
X153535500Y-107736900D01*
X153495500Y-102932900D02*
X153495500Y-107810900D01*
X153455500Y-102861900D02*
X153455500Y-107881900D01*
X153415500Y-102792900D02*
X153415500Y-107950900D01*
X153375500Y-102726900D02*
X153375500Y-108016900D01*
X153335500Y-102662900D02*
X153335500Y-108080900D01*
X153295500Y-102601900D02*
X153295500Y-108141900D01*
X153255500Y-102541900D02*
X153255500Y-108201900D01*
X153215500Y-102482900D02*
X153215500Y-108260900D01*
X153175500Y-102426900D02*
X153175500Y-108316900D01*
X153135500Y-102371900D02*
X153135500Y-108371900D01*
X153095500Y-102317900D02*
X153095500Y-108425900D01*
X153055500Y-102265900D02*
X153055500Y-108477900D01*
X153015500Y-102215900D02*
X153015500Y-108527900D01*
X152975500Y-102165900D02*
X152975500Y-108577900D01*
X152935500Y-102117900D02*
X152935500Y-108625900D01*
X152895500Y-102070900D02*
X152895500Y-108672900D01*
X152855500Y-102024900D02*
X152855500Y-108718900D01*
X152815500Y-101979900D02*
X152815500Y-108763900D01*
X152775500Y-101935900D02*
X152775500Y-108807900D01*
X152735500Y-101893900D02*
X152735500Y-108849900D01*
X152695500Y-101851900D02*
X152695500Y-108891900D01*
X152655500Y-101810900D02*
X152655500Y-108932900D01*
X152615500Y-101770900D02*
X152615500Y-108972900D01*
X152575500Y-101731900D02*
X152575500Y-109011900D01*
X152535500Y-101692900D02*
X152535500Y-109050900D01*
X152495500Y-101655900D02*
X152495500Y-109087900D01*
X152455500Y-101618900D02*
X152455500Y-109124900D01*
X152415500Y-101582900D02*
X152415500Y-109160900D01*
X152375500Y-101547900D02*
X152375500Y-109195900D01*
X152335500Y-101513900D02*
X152335500Y-109229900D01*
X152295500Y-101479900D02*
X152295500Y-109263900D01*
X152255500Y-101446900D02*
X152255500Y-109296900D01*
X152215500Y-101414900D02*
X152215500Y-109328900D01*
X152175500Y-101382900D02*
X152175500Y-109360900D01*
X152135500Y-101351900D02*
X152135500Y-109391900D01*
X152095500Y-101321900D02*
X152095500Y-109421900D01*
X152055500Y-101291900D02*
X152055500Y-109451900D01*
X152015500Y-101261900D02*
X152015500Y-109481900D01*
X151975500Y-101233900D02*
X151975500Y-109509900D01*
X151935500Y-101205900D02*
X151935500Y-109537900D01*
X151895500Y-101177900D02*
X151895500Y-109565900D01*
X151855500Y-101150900D02*
X151855500Y-109592900D01*
X151815500Y-101124900D02*
X151815500Y-109618900D01*
X151775500Y-101098900D02*
X151775500Y-109644900D01*
X151735500Y-101073900D02*
X151735500Y-109669900D01*
X151695500Y-101048900D02*
X151695500Y-109694900D01*
X151655500Y-101024900D02*
X151655500Y-109718900D01*
X151615500Y-101000900D02*
X151615500Y-109742900D01*
X151575500Y-100976900D02*
X151575500Y-109766900D01*
X151535500Y-100954900D02*
X151535500Y-109788900D01*
X151495500Y-100931900D02*
X151495500Y-109811900D01*
X151455500Y-100909900D02*
X151455500Y-109833900D01*
X151415500Y-100888900D02*
X151415500Y-109854900D01*
X151375500Y-100867900D02*
X151375500Y-109875900D01*
X151335500Y-100846900D02*
X151335500Y-109896900D01*
X151295500Y-106411900D02*
X151295500Y-109916900D01*
X151295500Y-100826900D02*
X151295500Y-104331900D01*
X151255500Y-106411900D02*
X151255500Y-109935900D01*
X151255500Y-100807900D02*
X151255500Y-104331900D01*
X151215500Y-106411900D02*
X151215500Y-109955900D01*
X151215500Y-100787900D02*
X151215500Y-104331900D01*
X151175500Y-106411900D02*
X151175500Y-109974900D01*
X151175500Y-100768900D02*
X151175500Y-104331900D01*
X151135500Y-106411900D02*
X151135500Y-109992900D01*
X151135500Y-100750900D02*
X151135500Y-104331900D01*
X151095500Y-106411900D02*
X151095500Y-110010900D01*
X151095500Y-100732900D02*
X151095500Y-104331900D01*
X151055500Y-106411900D02*
X151055500Y-110028900D01*
X151055500Y-100714900D02*
X151055500Y-104331900D01*
X151015500Y-106411900D02*
X151015500Y-110045900D01*
X151015500Y-100697900D02*
X151015500Y-104331900D01*
X150975500Y-106411900D02*
X150975500Y-110061900D01*
X150975500Y-100681900D02*
X150975500Y-104331900D01*
X150935500Y-106411900D02*
X150935500Y-110078900D01*
X150935500Y-100664900D02*
X150935500Y-104331900D01*
X150895500Y-106411900D02*
X150895500Y-110094900D01*
X150895500Y-100648900D02*
X150895500Y-104331900D01*
X150855500Y-106411900D02*
X150855500Y-110109900D01*
X150855500Y-100633900D02*
X150855500Y-104331900D01*
X150815500Y-106411900D02*
X150815500Y-110125900D01*
X150815500Y-100617900D02*
X150815500Y-104331900D01*
X150775500Y-106411900D02*
X150775500Y-110139900D01*
X150775500Y-100603900D02*
X150775500Y-104331900D01*
X150735500Y-106411900D02*
X150735500Y-110154900D01*
X150735500Y-100588900D02*
X150735500Y-104331900D01*
X150695500Y-106411900D02*
X150695500Y-110168900D01*
X150695500Y-100574900D02*
X150695500Y-104331900D01*
X150655500Y-106411900D02*
X150655500Y-110182900D01*
X150655500Y-100560900D02*
X150655500Y-104331900D01*
X150615500Y-106411900D02*
X150615500Y-110195900D01*
X150615500Y-100547900D02*
X150615500Y-104331900D01*
X150575500Y-106411900D02*
X150575500Y-110208900D01*
X150575500Y-100534900D02*
X150575500Y-104331900D01*
X150535500Y-106411900D02*
X150535500Y-110221900D01*
X150535500Y-100521900D02*
X150535500Y-104331900D01*
X150495500Y-106411900D02*
X150495500Y-110233900D01*
X150495500Y-100509900D02*
X150495500Y-104331900D01*
X150455500Y-106411900D02*
X150455500Y-110245900D01*
X150455500Y-100497900D02*
X150455500Y-104331900D01*
X150415500Y-106411900D02*
X150415500Y-110256900D01*
X150415500Y-100486900D02*
X150415500Y-104331900D01*
X150375500Y-106411900D02*
X150375500Y-110268900D01*
X150375500Y-100474900D02*
X150375500Y-104331900D01*
X150335500Y-106411900D02*
X150335500Y-110278900D01*
X150335500Y-100464900D02*
X150335500Y-104331900D01*
X150295500Y-106411900D02*
X150295500Y-110289900D01*
X150295500Y-100453900D02*
X150295500Y-104331900D01*
X150255500Y-106411900D02*
X150255500Y-110299900D01*
X150255500Y-100443900D02*
X150255500Y-104331900D01*
X150215500Y-106411900D02*
X150215500Y-110309900D01*
X150215500Y-100433900D02*
X150215500Y-104331900D01*
X150175500Y-106411900D02*
X150175500Y-110318900D01*
X150175500Y-100424900D02*
X150175500Y-104331900D01*
X150135500Y-106411900D02*
X150135500Y-110327900D01*
X150135500Y-100415900D02*
X150135500Y-104331900D01*
X150095500Y-106411900D02*
X150095500Y-110336900D01*
X150095500Y-100406900D02*
X150095500Y-104331900D01*
X150055500Y-106411900D02*
X150055500Y-110345900D01*
X150055500Y-100397900D02*
X150055500Y-104331900D01*
X150015500Y-106411900D02*
X150015500Y-110353900D01*
X150015500Y-100389900D02*
X150015500Y-104331900D01*
X149975500Y-106411900D02*
X149975500Y-110361900D01*
X149975500Y-100381900D02*
X149975500Y-104331900D01*
X149935500Y-106411900D02*
X149935500Y-110368900D01*
X149935500Y-100374900D02*
X149935500Y-104331900D01*
X149895500Y-106411900D02*
X149895500Y-110375900D01*
X149895500Y-100367900D02*
X149895500Y-104331900D01*
X149855500Y-106411900D02*
X149855500Y-110382900D01*
X149855500Y-100360900D02*
X149855500Y-104331900D01*
X149815500Y-106411900D02*
X149815500Y-110389900D01*
X149815500Y-100353900D02*
X149815500Y-104331900D01*
X149775500Y-106411900D02*
X149775500Y-110395900D01*
X149775500Y-100347900D02*
X149775500Y-104331900D01*
X149735500Y-106411900D02*
X149735500Y-110401900D01*
X149735500Y-100341900D02*
X149735500Y-104331900D01*
X149694500Y-106411900D02*
X149694500Y-110406900D01*
X149694500Y-100336900D02*
X149694500Y-104331900D01*
X149654500Y-106411900D02*
X149654500Y-110411900D01*
X149654500Y-100331900D02*
X149654500Y-104331900D01*
X149614500Y-106411900D02*
X149614500Y-110416900D01*
X149614500Y-100326900D02*
X149614500Y-104331900D01*
X149574500Y-106411900D02*
X149574500Y-110421900D01*
X149574500Y-100321900D02*
X149574500Y-104331900D01*
X149534500Y-106411900D02*
X149534500Y-110425900D01*
X149534500Y-100317900D02*
X149534500Y-104331900D01*
X149494500Y-106411900D02*
X149494500Y-110429900D01*
X149494500Y-100313900D02*
X149494500Y-104331900D01*
X149454500Y-106411900D02*
X149454500Y-110433900D01*
X149454500Y-100309900D02*
X149454500Y-104331900D01*
X149414500Y-106411900D02*
X149414500Y-110436900D01*
X149414500Y-100306900D02*
X149414500Y-104331900D01*
X149374500Y-106411900D02*
X149374500Y-110439900D01*
X149374500Y-100303900D02*
X149374500Y-104331900D01*
X149334500Y-106411900D02*
X149334500Y-110441900D01*
X149334500Y-100301900D02*
X149334500Y-104331900D01*
X149294500Y-106411900D02*
X149294500Y-110444900D01*
X149294500Y-100298900D02*
X149294500Y-104331900D01*
X149254500Y-106411900D02*
X149254500Y-110446900D01*
X149254500Y-100296900D02*
X149254500Y-104331900D01*
X149214500Y-100294900D02*
X149214500Y-110448900D01*
X149174500Y-100293900D02*
X149174500Y-110449900D01*
X149134500Y-100292900D02*
X149134500Y-110450900D01*
X149094500Y-100291900D02*
X149094500Y-110451900D01*
X149054500Y-100291900D02*
X149054500Y-110451900D01*
X149014500Y-100291900D02*
X149014500Y-110451900D01*
X154134500Y-105371900D02*
G75*
G03X154134500Y-105371900I-5120000J0D01*
G01*
X120569646Y-108785000D02*
X120569646Y-107785000D01*
X121069646Y-108285000D02*
X120069646Y-108285000D01*
X110509000Y-106009000D02*
X110509000Y-104811000D01*
X110549000Y-106272000D02*
X110549000Y-104548000D01*
X110589000Y-106472000D02*
X110589000Y-104348000D01*
X110629000Y-106640000D02*
X110629000Y-104180000D01*
X110669000Y-106788000D02*
X110669000Y-104032000D01*
X110709000Y-106920000D02*
X110709000Y-103900000D01*
X110749000Y-107040000D02*
X110749000Y-103780000D01*
X110789000Y-107152000D02*
X110789000Y-103668000D01*
X110829000Y-107256000D02*
X110829000Y-103564000D01*
X110869000Y-107354000D02*
X110869000Y-103466000D01*
X110909000Y-107447000D02*
X110909000Y-103373000D01*
X110949000Y-107535000D02*
X110949000Y-103285000D01*
X110989000Y-107619000D02*
X110989000Y-103201000D01*
X111029000Y-107699000D02*
X111029000Y-103121000D01*
X111069000Y-107775000D02*
X111069000Y-103045000D01*
X111109000Y-107849000D02*
X111109000Y-102971000D01*
X111149000Y-107920000D02*
X111149000Y-102900000D01*
X111189000Y-107989000D02*
X111189000Y-102831000D01*
X111229000Y-108055000D02*
X111229000Y-102765000D01*
X111269000Y-108119000D02*
X111269000Y-102701000D01*
X111309000Y-108180000D02*
X111309000Y-102640000D01*
X111349000Y-108240000D02*
X111349000Y-102580000D01*
X111389000Y-108299000D02*
X111389000Y-102521000D01*
X111429000Y-108355000D02*
X111429000Y-102465000D01*
X111469000Y-108410000D02*
X111469000Y-102410000D01*
X111509000Y-108464000D02*
X111509000Y-102356000D01*
X111549000Y-108516000D02*
X111549000Y-102304000D01*
X111589000Y-108566000D02*
X111589000Y-102254000D01*
X111629000Y-108616000D02*
X111629000Y-102204000D01*
X111669000Y-108664000D02*
X111669000Y-102156000D01*
X111709000Y-108711000D02*
X111709000Y-102109000D01*
X111749000Y-108757000D02*
X111749000Y-102063000D01*
X111789000Y-108802000D02*
X111789000Y-102018000D01*
X111829000Y-108846000D02*
X111829000Y-101974000D01*
X111869000Y-108888000D02*
X111869000Y-101932000D01*
X111909000Y-108930000D02*
X111909000Y-101890000D01*
X111949000Y-108971000D02*
X111949000Y-101849000D01*
X111989000Y-109011000D02*
X111989000Y-101809000D01*
X112029000Y-109050000D02*
X112029000Y-101770000D01*
X112069000Y-109089000D02*
X112069000Y-101731000D01*
X112109000Y-109126000D02*
X112109000Y-101694000D01*
X112149000Y-109163000D02*
X112149000Y-101657000D01*
X112189000Y-109199000D02*
X112189000Y-101621000D01*
X112229000Y-109234000D02*
X112229000Y-101586000D01*
X112269000Y-109268000D02*
X112269000Y-101552000D01*
X112309000Y-109302000D02*
X112309000Y-101518000D01*
X112349000Y-109335000D02*
X112349000Y-101485000D01*
X112389000Y-109367000D02*
X112389000Y-101453000D01*
X112429000Y-109399000D02*
X112429000Y-101421000D01*
X112469000Y-109430000D02*
X112469000Y-101390000D01*
X112509000Y-109460000D02*
X112509000Y-101360000D01*
X112549000Y-109490000D02*
X112549000Y-101330000D01*
X112589000Y-109520000D02*
X112589000Y-101300000D01*
X112629000Y-109548000D02*
X112629000Y-101272000D01*
X112669000Y-109576000D02*
X112669000Y-101244000D01*
X112709000Y-109604000D02*
X112709000Y-101216000D01*
X112749000Y-109631000D02*
X112749000Y-101189000D01*
X112789000Y-109657000D02*
X112789000Y-101163000D01*
X112829000Y-109683000D02*
X112829000Y-101137000D01*
X112869000Y-109708000D02*
X112869000Y-101112000D01*
X112909000Y-109733000D02*
X112909000Y-101087000D01*
X112949000Y-109757000D02*
X112949000Y-101063000D01*
X112989000Y-109781000D02*
X112989000Y-101039000D01*
X113029000Y-109805000D02*
X113029000Y-101015000D01*
X113069000Y-109827000D02*
X113069000Y-100993000D01*
X113109000Y-109850000D02*
X113109000Y-100970000D01*
X113149000Y-109872000D02*
X113149000Y-100948000D01*
X113189000Y-109893000D02*
X113189000Y-100927000D01*
X113229000Y-109914000D02*
X113229000Y-100906000D01*
X113269000Y-109935000D02*
X113269000Y-100885000D01*
X113309000Y-104370000D02*
X113309000Y-100865000D01*
X113309000Y-109955000D02*
X113309000Y-106450000D01*
X113349000Y-104370000D02*
X113349000Y-100846000D01*
X113349000Y-109974000D02*
X113349000Y-106450000D01*
X113389000Y-104370000D02*
X113389000Y-100826000D01*
X113389000Y-109994000D02*
X113389000Y-106450000D01*
X113429000Y-104370000D02*
X113429000Y-100807000D01*
X113429000Y-110013000D02*
X113429000Y-106450000D01*
X113469000Y-104370000D02*
X113469000Y-100789000D01*
X113469000Y-110031000D02*
X113469000Y-106450000D01*
X113509000Y-104370000D02*
X113509000Y-100771000D01*
X113509000Y-110049000D02*
X113509000Y-106450000D01*
X113549000Y-104370000D02*
X113549000Y-100753000D01*
X113549000Y-110067000D02*
X113549000Y-106450000D01*
X113589000Y-104370000D02*
X113589000Y-100736000D01*
X113589000Y-110084000D02*
X113589000Y-106450000D01*
X113629000Y-104370000D02*
X113629000Y-100720000D01*
X113629000Y-110100000D02*
X113629000Y-106450000D01*
X113669000Y-104370000D02*
X113669000Y-100703000D01*
X113669000Y-110117000D02*
X113669000Y-106450000D01*
X113709000Y-104370000D02*
X113709000Y-100687000D01*
X113709000Y-110133000D02*
X113709000Y-106450000D01*
X113749000Y-104370000D02*
X113749000Y-100672000D01*
X113749000Y-110148000D02*
X113749000Y-106450000D01*
X113789000Y-104370000D02*
X113789000Y-100656000D01*
X113789000Y-110164000D02*
X113789000Y-106450000D01*
X113829000Y-104370000D02*
X113829000Y-100642000D01*
X113829000Y-110178000D02*
X113829000Y-106450000D01*
X113869000Y-104370000D02*
X113869000Y-100627000D01*
X113869000Y-110193000D02*
X113869000Y-106450000D01*
X113909000Y-104370000D02*
X113909000Y-100613000D01*
X113909000Y-110207000D02*
X113909000Y-106450000D01*
X113949000Y-104370000D02*
X113949000Y-100599000D01*
X113949000Y-110221000D02*
X113949000Y-106450000D01*
X113989000Y-104370000D02*
X113989000Y-100586000D01*
X113989000Y-110234000D02*
X113989000Y-106450000D01*
X114029000Y-104370000D02*
X114029000Y-100573000D01*
X114029000Y-110247000D02*
X114029000Y-106450000D01*
X114069000Y-104370000D02*
X114069000Y-100560000D01*
X114069000Y-110260000D02*
X114069000Y-106450000D01*
X114109000Y-104370000D02*
X114109000Y-100548000D01*
X114109000Y-110272000D02*
X114109000Y-106450000D01*
X114149000Y-104370000D02*
X114149000Y-100536000D01*
X114149000Y-110284000D02*
X114149000Y-106450000D01*
X114189000Y-104370000D02*
X114189000Y-100525000D01*
X114189000Y-110295000D02*
X114189000Y-106450000D01*
X114229000Y-104370000D02*
X114229000Y-100513000D01*
X114229000Y-110307000D02*
X114229000Y-106450000D01*
X114269000Y-104370000D02*
X114269000Y-100503000D01*
X114269000Y-110317000D02*
X114269000Y-106450000D01*
X114309000Y-104370000D02*
X114309000Y-100492000D01*
X114309000Y-110328000D02*
X114309000Y-106450000D01*
X114349000Y-104370000D02*
X114349000Y-100482000D01*
X114349000Y-110338000D02*
X114349000Y-106450000D01*
X114389000Y-104370000D02*
X114389000Y-100472000D01*
X114389000Y-110348000D02*
X114389000Y-106450000D01*
X114429000Y-104370000D02*
X114429000Y-100463000D01*
X114429000Y-110357000D02*
X114429000Y-106450000D01*
X114469000Y-104370000D02*
X114469000Y-100454000D01*
X114469000Y-110366000D02*
X114469000Y-106450000D01*
X114509000Y-104370000D02*
X114509000Y-100445000D01*
X114509000Y-110375000D02*
X114509000Y-106450000D01*
X114549000Y-104370000D02*
X114549000Y-100436000D01*
X114549000Y-110384000D02*
X114549000Y-106450000D01*
X114589000Y-104370000D02*
X114589000Y-100428000D01*
X114589000Y-110392000D02*
X114589000Y-106450000D01*
X114629000Y-104370000D02*
X114629000Y-100420000D01*
X114629000Y-110400000D02*
X114629000Y-106450000D01*
X114669000Y-104370000D02*
X114669000Y-100413000D01*
X114669000Y-110407000D02*
X114669000Y-106450000D01*
X114709000Y-104370000D02*
X114709000Y-100406000D01*
X114709000Y-110414000D02*
X114709000Y-106450000D01*
X114749000Y-104370000D02*
X114749000Y-100399000D01*
X114749000Y-110421000D02*
X114749000Y-106450000D01*
X114789000Y-104370000D02*
X114789000Y-100392000D01*
X114789000Y-110428000D02*
X114789000Y-106450000D01*
X114829000Y-104370000D02*
X114829000Y-100386000D01*
X114829000Y-110434000D02*
X114829000Y-106450000D01*
X114869000Y-104370000D02*
X114869000Y-100380000D01*
X114869000Y-110440000D02*
X114869000Y-106450000D01*
X114910000Y-104370000D02*
X114910000Y-100375000D01*
X114910000Y-110445000D02*
X114910000Y-106450000D01*
X114950000Y-104370000D02*
X114950000Y-100370000D01*
X114950000Y-110450000D02*
X114950000Y-106450000D01*
X114990000Y-104370000D02*
X114990000Y-100365000D01*
X114990000Y-110455000D02*
X114990000Y-106450000D01*
X115030000Y-104370000D02*
X115030000Y-100360000D01*
X115030000Y-110460000D02*
X115030000Y-106450000D01*
X115070000Y-104370000D02*
X115070000Y-100356000D01*
X115070000Y-110464000D02*
X115070000Y-106450000D01*
X115110000Y-104370000D02*
X115110000Y-100352000D01*
X115110000Y-110468000D02*
X115110000Y-106450000D01*
X115150000Y-104370000D02*
X115150000Y-100348000D01*
X115150000Y-110472000D02*
X115150000Y-106450000D01*
X115190000Y-104370000D02*
X115190000Y-100345000D01*
X115190000Y-110475000D02*
X115190000Y-106450000D01*
X115230000Y-104370000D02*
X115230000Y-100342000D01*
X115230000Y-110478000D02*
X115230000Y-106450000D01*
X115270000Y-104370000D02*
X115270000Y-100340000D01*
X115270000Y-110480000D02*
X115270000Y-106450000D01*
X115310000Y-104370000D02*
X115310000Y-100337000D01*
X115310000Y-110483000D02*
X115310000Y-106450000D01*
X115350000Y-104370000D02*
X115350000Y-100335000D01*
X115350000Y-110485000D02*
X115350000Y-106450000D01*
X115390000Y-110487000D02*
X115390000Y-100333000D01*
X115430000Y-110488000D02*
X115430000Y-100332000D01*
X115470000Y-110489000D02*
X115470000Y-100331000D01*
X115510000Y-110490000D02*
X115510000Y-100330000D01*
X115550000Y-110490000D02*
X115550000Y-100330000D01*
X115590000Y-110490000D02*
X115590000Y-100330000D01*
X120710000Y-105410000D02*
G75*
G03X120710000Y-105410000I-5120000J0D01*
G01*
X156290354Y-101996900D02*
X156290354Y-102996900D01*
X155790354Y-102496900D02*
X156790354Y-102496900D01*
X166351000Y-104772900D02*
X166351000Y-105970900D01*
X166311000Y-104509900D02*
X166311000Y-106233900D01*
X166271000Y-104309900D02*
X166271000Y-106433900D01*
X166231000Y-104141900D02*
X166231000Y-106601900D01*
X166191000Y-103993900D02*
X166191000Y-106749900D01*
X166151000Y-103861900D02*
X166151000Y-106881900D01*
X166111000Y-103741900D02*
X166111000Y-107001900D01*
X166071000Y-103629900D02*
X166071000Y-107113900D01*
X166031000Y-103525900D02*
X166031000Y-107217900D01*
X165991000Y-103427900D02*
X165991000Y-107315900D01*
X165951000Y-103334900D02*
X165951000Y-107408900D01*
X165911000Y-103246900D02*
X165911000Y-107496900D01*
X165871000Y-103162900D02*
X165871000Y-107580900D01*
X165831000Y-103082900D02*
X165831000Y-107660900D01*
X165791000Y-103006900D02*
X165791000Y-107736900D01*
X165751000Y-102932900D02*
X165751000Y-107810900D01*
X165711000Y-102861900D02*
X165711000Y-107881900D01*
X165671000Y-102792900D02*
X165671000Y-107950900D01*
X165631000Y-102726900D02*
X165631000Y-108016900D01*
X165591000Y-102662900D02*
X165591000Y-108080900D01*
X165551000Y-102601900D02*
X165551000Y-108141900D01*
X165511000Y-102541900D02*
X165511000Y-108201900D01*
X165471000Y-102482900D02*
X165471000Y-108260900D01*
X165431000Y-102426900D02*
X165431000Y-108316900D01*
X165391000Y-102371900D02*
X165391000Y-108371900D01*
X165351000Y-102317900D02*
X165351000Y-108425900D01*
X165311000Y-102265900D02*
X165311000Y-108477900D01*
X165271000Y-102215900D02*
X165271000Y-108527900D01*
X165231000Y-102165900D02*
X165231000Y-108577900D01*
X165191000Y-102117900D02*
X165191000Y-108625900D01*
X165151000Y-102070900D02*
X165151000Y-108672900D01*
X165111000Y-102024900D02*
X165111000Y-108718900D01*
X165071000Y-101979900D02*
X165071000Y-108763900D01*
X165031000Y-101935900D02*
X165031000Y-108807900D01*
X164991000Y-101893900D02*
X164991000Y-108849900D01*
X164951000Y-101851900D02*
X164951000Y-108891900D01*
X164911000Y-101810900D02*
X164911000Y-108932900D01*
X164871000Y-101770900D02*
X164871000Y-108972900D01*
X164831000Y-101731900D02*
X164831000Y-109011900D01*
X164791000Y-101692900D02*
X164791000Y-109050900D01*
X164751000Y-101655900D02*
X164751000Y-109087900D01*
X164711000Y-101618900D02*
X164711000Y-109124900D01*
X164671000Y-101582900D02*
X164671000Y-109160900D01*
X164631000Y-101547900D02*
X164631000Y-109195900D01*
X164591000Y-101513900D02*
X164591000Y-109229900D01*
X164551000Y-101479900D02*
X164551000Y-109263900D01*
X164511000Y-101446900D02*
X164511000Y-109296900D01*
X164471000Y-101414900D02*
X164471000Y-109328900D01*
X164431000Y-101382900D02*
X164431000Y-109360900D01*
X164391000Y-101351900D02*
X164391000Y-109391900D01*
X164351000Y-101321900D02*
X164351000Y-109421900D01*
X164311000Y-101291900D02*
X164311000Y-109451900D01*
X164271000Y-101261900D02*
X164271000Y-109481900D01*
X164231000Y-101233900D02*
X164231000Y-109509900D01*
X164191000Y-101205900D02*
X164191000Y-109537900D01*
X164151000Y-101177900D02*
X164151000Y-109565900D01*
X164111000Y-101150900D02*
X164111000Y-109592900D01*
X164071000Y-101124900D02*
X164071000Y-109618900D01*
X164031000Y-101098900D02*
X164031000Y-109644900D01*
X163991000Y-101073900D02*
X163991000Y-109669900D01*
X163951000Y-101048900D02*
X163951000Y-109694900D01*
X163911000Y-101024900D02*
X163911000Y-109718900D01*
X163871000Y-101000900D02*
X163871000Y-109742900D01*
X163831000Y-100976900D02*
X163831000Y-109766900D01*
X163791000Y-100954900D02*
X163791000Y-109788900D01*
X163751000Y-100931900D02*
X163751000Y-109811900D01*
X163711000Y-100909900D02*
X163711000Y-109833900D01*
X163671000Y-100888900D02*
X163671000Y-109854900D01*
X163631000Y-100867900D02*
X163631000Y-109875900D01*
X163591000Y-100846900D02*
X163591000Y-109896900D01*
X163551000Y-106411900D02*
X163551000Y-109916900D01*
X163551000Y-100826900D02*
X163551000Y-104331900D01*
X163511000Y-106411900D02*
X163511000Y-109935900D01*
X163511000Y-100807900D02*
X163511000Y-104331900D01*
X163471000Y-106411900D02*
X163471000Y-109955900D01*
X163471000Y-100787900D02*
X163471000Y-104331900D01*
X163431000Y-106411900D02*
X163431000Y-109974900D01*
X163431000Y-100768900D02*
X163431000Y-104331900D01*
X163391000Y-106411900D02*
X163391000Y-109992900D01*
X163391000Y-100750900D02*
X163391000Y-104331900D01*
X163351000Y-106411900D02*
X163351000Y-110010900D01*
X163351000Y-100732900D02*
X163351000Y-104331900D01*
X163311000Y-106411900D02*
X163311000Y-110028900D01*
X163311000Y-100714900D02*
X163311000Y-104331900D01*
X163271000Y-106411900D02*
X163271000Y-110045900D01*
X163271000Y-100697900D02*
X163271000Y-104331900D01*
X163231000Y-106411900D02*
X163231000Y-110061900D01*
X163231000Y-100681900D02*
X163231000Y-104331900D01*
X163191000Y-106411900D02*
X163191000Y-110078900D01*
X163191000Y-100664900D02*
X163191000Y-104331900D01*
X163151000Y-106411900D02*
X163151000Y-110094900D01*
X163151000Y-100648900D02*
X163151000Y-104331900D01*
X163111000Y-106411900D02*
X163111000Y-110109900D01*
X163111000Y-100633900D02*
X163111000Y-104331900D01*
X163071000Y-106411900D02*
X163071000Y-110125900D01*
X163071000Y-100617900D02*
X163071000Y-104331900D01*
X163031000Y-106411900D02*
X163031000Y-110139900D01*
X163031000Y-100603900D02*
X163031000Y-104331900D01*
X162991000Y-106411900D02*
X162991000Y-110154900D01*
X162991000Y-100588900D02*
X162991000Y-104331900D01*
X162951000Y-106411900D02*
X162951000Y-110168900D01*
X162951000Y-100574900D02*
X162951000Y-104331900D01*
X162911000Y-106411900D02*
X162911000Y-110182900D01*
X162911000Y-100560900D02*
X162911000Y-104331900D01*
X162871000Y-106411900D02*
X162871000Y-110195900D01*
X162871000Y-100547900D02*
X162871000Y-104331900D01*
X162831000Y-106411900D02*
X162831000Y-110208900D01*
X162831000Y-100534900D02*
X162831000Y-104331900D01*
X162791000Y-106411900D02*
X162791000Y-110221900D01*
X162791000Y-100521900D02*
X162791000Y-104331900D01*
X162751000Y-106411900D02*
X162751000Y-110233900D01*
X162751000Y-100509900D02*
X162751000Y-104331900D01*
X162711000Y-106411900D02*
X162711000Y-110245900D01*
X162711000Y-100497900D02*
X162711000Y-104331900D01*
X162671000Y-106411900D02*
X162671000Y-110256900D01*
X162671000Y-100486900D02*
X162671000Y-104331900D01*
X162631000Y-106411900D02*
X162631000Y-110268900D01*
X162631000Y-100474900D02*
X162631000Y-104331900D01*
X162591000Y-106411900D02*
X162591000Y-110278900D01*
X162591000Y-100464900D02*
X162591000Y-104331900D01*
X162551000Y-106411900D02*
X162551000Y-110289900D01*
X162551000Y-100453900D02*
X162551000Y-104331900D01*
X162511000Y-106411900D02*
X162511000Y-110299900D01*
X162511000Y-100443900D02*
X162511000Y-104331900D01*
X162471000Y-106411900D02*
X162471000Y-110309900D01*
X162471000Y-100433900D02*
X162471000Y-104331900D01*
X162431000Y-106411900D02*
X162431000Y-110318900D01*
X162431000Y-100424900D02*
X162431000Y-104331900D01*
X162391000Y-106411900D02*
X162391000Y-110327900D01*
X162391000Y-100415900D02*
X162391000Y-104331900D01*
X162351000Y-106411900D02*
X162351000Y-110336900D01*
X162351000Y-100406900D02*
X162351000Y-104331900D01*
X162311000Y-106411900D02*
X162311000Y-110345900D01*
X162311000Y-100397900D02*
X162311000Y-104331900D01*
X162271000Y-106411900D02*
X162271000Y-110353900D01*
X162271000Y-100389900D02*
X162271000Y-104331900D01*
X162231000Y-106411900D02*
X162231000Y-110361900D01*
X162231000Y-100381900D02*
X162231000Y-104331900D01*
X162191000Y-106411900D02*
X162191000Y-110368900D01*
X162191000Y-100374900D02*
X162191000Y-104331900D01*
X162151000Y-106411900D02*
X162151000Y-110375900D01*
X162151000Y-100367900D02*
X162151000Y-104331900D01*
X162111000Y-106411900D02*
X162111000Y-110382900D01*
X162111000Y-100360900D02*
X162111000Y-104331900D01*
X162071000Y-106411900D02*
X162071000Y-110389900D01*
X162071000Y-100353900D02*
X162071000Y-104331900D01*
X162031000Y-106411900D02*
X162031000Y-110395900D01*
X162031000Y-100347900D02*
X162031000Y-104331900D01*
X161991000Y-106411900D02*
X161991000Y-110401900D01*
X161991000Y-100341900D02*
X161991000Y-104331900D01*
X161950000Y-106411900D02*
X161950000Y-110406900D01*
X161950000Y-100336900D02*
X161950000Y-104331900D01*
X161910000Y-106411900D02*
X161910000Y-110411900D01*
X161910000Y-100331900D02*
X161910000Y-104331900D01*
X161870000Y-106411900D02*
X161870000Y-110416900D01*
X161870000Y-100326900D02*
X161870000Y-104331900D01*
X161830000Y-106411900D02*
X161830000Y-110421900D01*
X161830000Y-100321900D02*
X161830000Y-104331900D01*
X161790000Y-106411900D02*
X161790000Y-110425900D01*
X161790000Y-100317900D02*
X161790000Y-104331900D01*
X161750000Y-106411900D02*
X161750000Y-110429900D01*
X161750000Y-100313900D02*
X161750000Y-104331900D01*
X161710000Y-106411900D02*
X161710000Y-110433900D01*
X161710000Y-100309900D02*
X161710000Y-104331900D01*
X161670000Y-106411900D02*
X161670000Y-110436900D01*
X161670000Y-100306900D02*
X161670000Y-104331900D01*
X161630000Y-106411900D02*
X161630000Y-110439900D01*
X161630000Y-100303900D02*
X161630000Y-104331900D01*
X161590000Y-106411900D02*
X161590000Y-110441900D01*
X161590000Y-100301900D02*
X161590000Y-104331900D01*
X161550000Y-106411900D02*
X161550000Y-110444900D01*
X161550000Y-100298900D02*
X161550000Y-104331900D01*
X161510000Y-106411900D02*
X161510000Y-110446900D01*
X161510000Y-100296900D02*
X161510000Y-104331900D01*
X161470000Y-100294900D02*
X161470000Y-110448900D01*
X161430000Y-100293900D02*
X161430000Y-110449900D01*
X161390000Y-100292900D02*
X161390000Y-110450900D01*
X161350000Y-100291900D02*
X161350000Y-110451900D01*
X161310000Y-100291900D02*
X161310000Y-110451900D01*
X161270000Y-100291900D02*
X161270000Y-110451900D01*
X166390000Y-105371900D02*
G75*
G03X166390000Y-105371900I-5120000J0D01*
G01*
D12*
X109180333Y-92432142D02*
X109132714Y-92479761D01*
X108989857Y-92527380D01*
X108894619Y-92527380D01*
X108751761Y-92479761D01*
X108656523Y-92384523D01*
X108608904Y-92289285D01*
X108561285Y-92098809D01*
X108561285Y-91955952D01*
X108608904Y-91765476D01*
X108656523Y-91670238D01*
X108751761Y-91575000D01*
X108894619Y-91527380D01*
X108989857Y-91527380D01*
X109132714Y-91575000D01*
X109180333Y-91622619D01*
X110037476Y-91527380D02*
X109847000Y-91527380D01*
X109751761Y-91575000D01*
X109704142Y-91622619D01*
X109608904Y-91765476D01*
X109561285Y-91955952D01*
X109561285Y-92336904D01*
X109608904Y-92432142D01*
X109656523Y-92479761D01*
X109751761Y-92527380D01*
X109942238Y-92527380D01*
X110037476Y-92479761D01*
X110085095Y-92432142D01*
X110132714Y-92336904D01*
X110132714Y-92098809D01*
X110085095Y-92003571D01*
X110037476Y-91955952D01*
X109942238Y-91908333D01*
X109751761Y-91908333D01*
X109656523Y-91955952D01*
X109608904Y-92003571D01*
X109561285Y-92098809D01*
X156297333Y-82907142D02*
X156249714Y-82954761D01*
X156106857Y-83002380D01*
X156011619Y-83002380D01*
X155868761Y-82954761D01*
X155773523Y-82859523D01*
X155725904Y-82764285D01*
X155678285Y-82573809D01*
X155678285Y-82430952D01*
X155725904Y-82240476D01*
X155773523Y-82145238D01*
X155868761Y-82050000D01*
X156011619Y-82002380D01*
X156106857Y-82002380D01*
X156249714Y-82050000D01*
X156297333Y-82097619D01*
X156868761Y-82430952D02*
X156773523Y-82383333D01*
X156725904Y-82335714D01*
X156678285Y-82240476D01*
X156678285Y-82192857D01*
X156725904Y-82097619D01*
X156773523Y-82050000D01*
X156868761Y-82002380D01*
X157059238Y-82002380D01*
X157154476Y-82050000D01*
X157202095Y-82097619D01*
X157249714Y-82192857D01*
X157249714Y-82240476D01*
X157202095Y-82335714D01*
X157154476Y-82383333D01*
X157059238Y-82430952D01*
X156868761Y-82430952D01*
X156773523Y-82478571D01*
X156725904Y-82526190D01*
X156678285Y-82621428D01*
X156678285Y-82811904D01*
X156725904Y-82907142D01*
X156773523Y-82954761D01*
X156868761Y-83002380D01*
X157059238Y-83002380D01*
X157154476Y-82954761D01*
X157202095Y-82907142D01*
X157249714Y-82811904D01*
X157249714Y-82621428D01*
X157202095Y-82526190D01*
X157154476Y-82478571D01*
X157059238Y-82430952D01*
X105330666Y-74382380D02*
X105330666Y-75096666D01*
X105283047Y-75239523D01*
X105187809Y-75334761D01*
X105044952Y-75382380D01*
X104949714Y-75382380D01*
X106235428Y-74715714D02*
X106235428Y-75382380D01*
X105997333Y-74334761D02*
X105759238Y-75049047D01*
X106378285Y-75049047D01*
X136572666Y-76287380D02*
X136572666Y-77001666D01*
X136525047Y-77144523D01*
X136429809Y-77239761D01*
X136286952Y-77287380D01*
X136191714Y-77287380D01*
X136953619Y-76287380D02*
X137572666Y-76287380D01*
X137239333Y-76668333D01*
X137382190Y-76668333D01*
X137477428Y-76715952D01*
X137525047Y-76763571D01*
X137572666Y-76858809D01*
X137572666Y-77096904D01*
X137525047Y-77192142D01*
X137477428Y-77239761D01*
X137382190Y-77287380D01*
X137096476Y-77287380D01*
X137001238Y-77239761D01*
X136953619Y-77192142D01*
X137207666Y-105751380D02*
X137207666Y-106465666D01*
X137160047Y-106608523D01*
X137064809Y-106703761D01*
X136921952Y-106751380D01*
X136826714Y-106751380D01*
X137636238Y-105846619D02*
X137683857Y-105799000D01*
X137779095Y-105751380D01*
X138017190Y-105751380D01*
X138112428Y-105799000D01*
X138160047Y-105846619D01*
X138207666Y-105941857D01*
X138207666Y-106037095D01*
X138160047Y-106179952D01*
X137588619Y-106751380D01*
X138207666Y-106751380D01*
X101520666Y-93075380D02*
X101520666Y-93789666D01*
X101473047Y-93932523D01*
X101377809Y-94027761D01*
X101234952Y-94075380D01*
X101139714Y-94075380D01*
X102520666Y-94075380D02*
X101949238Y-94075380D01*
X102234952Y-94075380D02*
X102234952Y-93075380D01*
X102139714Y-93218238D01*
X102044476Y-93313476D01*
X101949238Y-93361095D01*
D13*
X136555238Y-85791523D02*
X136555238Y-84521523D01*
X137885714Y-85670571D02*
X137825238Y-85731047D01*
X137643809Y-85791523D01*
X137522857Y-85791523D01*
X137341428Y-85731047D01*
X137220476Y-85610095D01*
X137160000Y-85489142D01*
X137099523Y-85247238D01*
X137099523Y-85065809D01*
X137160000Y-84823904D01*
X137220476Y-84702952D01*
X137341428Y-84582000D01*
X137522857Y-84521523D01*
X137643809Y-84521523D01*
X137825238Y-84582000D01*
X137885714Y-84642476D01*
X139095238Y-85791523D02*
X138369523Y-85791523D01*
X138732380Y-85791523D02*
X138732380Y-84521523D01*
X138611428Y-84702952D01*
X138490476Y-84823904D01*
X138369523Y-84884380D01*
D12*
X114947142Y-84077142D02*
X114899523Y-84124761D01*
X114756666Y-84172380D01*
X114661428Y-84172380D01*
X114518571Y-84124761D01*
X114423333Y-84029523D01*
X114375714Y-83934285D01*
X114328095Y-83743809D01*
X114328095Y-83600952D01*
X114375714Y-83410476D01*
X114423333Y-83315238D01*
X114518571Y-83220000D01*
X114661428Y-83172380D01*
X114756666Y-83172380D01*
X114899523Y-83220000D01*
X114947142Y-83267619D01*
X115899523Y-84172380D02*
X115328095Y-84172380D01*
X115613809Y-84172380D02*
X115613809Y-83172380D01*
X115518571Y-83315238D01*
X115423333Y-83410476D01*
X115328095Y-83458095D01*
X116518571Y-83172380D02*
X116613809Y-83172380D01*
X116709047Y-83220000D01*
X116756666Y-83267619D01*
X116804285Y-83362857D01*
X116851904Y-83553333D01*
X116851904Y-83791428D01*
X116804285Y-83981904D01*
X116756666Y-84077142D01*
X116709047Y-84124761D01*
X116613809Y-84172380D01*
X116518571Y-84172380D01*
X116423333Y-84124761D01*
X116375714Y-84077142D01*
X116328095Y-83981904D01*
X116280476Y-83791428D01*
X116280476Y-83553333D01*
X116328095Y-83362857D01*
X116375714Y-83267619D01*
X116423333Y-83220000D01*
X116518571Y-83172380D01*
X143978333Y-83034142D02*
X143930714Y-83081761D01*
X143787857Y-83129380D01*
X143692619Y-83129380D01*
X143549761Y-83081761D01*
X143454523Y-82986523D01*
X143406904Y-82891285D01*
X143359285Y-82700809D01*
X143359285Y-82557952D01*
X143406904Y-82367476D01*
X143454523Y-82272238D01*
X143549761Y-82177000D01*
X143692619Y-82129380D01*
X143787857Y-82129380D01*
X143930714Y-82177000D01*
X143978333Y-82224619D01*
X144454523Y-83129380D02*
X144645000Y-83129380D01*
X144740238Y-83081761D01*
X144787857Y-83034142D01*
X144883095Y-82891285D01*
X144930714Y-82700809D01*
X144930714Y-82319857D01*
X144883095Y-82224619D01*
X144835476Y-82177000D01*
X144740238Y-82129380D01*
X144549761Y-82129380D01*
X144454523Y-82177000D01*
X144406904Y-82224619D01*
X144359285Y-82319857D01*
X144359285Y-82557952D01*
X144406904Y-82653190D01*
X144454523Y-82700809D01*
X144549761Y-82748428D01*
X144740238Y-82748428D01*
X144835476Y-82700809D01*
X144883095Y-82653190D01*
X144930714Y-82557952D01*
X126853333Y-84077142D02*
X126805714Y-84124761D01*
X126662857Y-84172380D01*
X126567619Y-84172380D01*
X126424761Y-84124761D01*
X126329523Y-84029523D01*
X126281904Y-83934285D01*
X126234285Y-83743809D01*
X126234285Y-83600952D01*
X126281904Y-83410476D01*
X126329523Y-83315238D01*
X126424761Y-83220000D01*
X126567619Y-83172380D01*
X126662857Y-83172380D01*
X126805714Y-83220000D01*
X126853333Y-83267619D01*
X127186666Y-83172380D02*
X127853333Y-83172380D01*
X127424761Y-84172380D01*
X123150333Y-100687142D02*
X123102714Y-100734761D01*
X122959857Y-100782380D01*
X122864619Y-100782380D01*
X122721761Y-100734761D01*
X122626523Y-100639523D01*
X122578904Y-100544285D01*
X122531285Y-100353809D01*
X122531285Y-100210952D01*
X122578904Y-100020476D01*
X122626523Y-99925238D01*
X122721761Y-99830000D01*
X122864619Y-99782380D01*
X122959857Y-99782380D01*
X123102714Y-99830000D01*
X123150333Y-99877619D01*
X124055095Y-99782380D02*
X123578904Y-99782380D01*
X123531285Y-100258571D01*
X123578904Y-100210952D01*
X123674142Y-100163333D01*
X123912238Y-100163333D01*
X124007476Y-100210952D01*
X124055095Y-100258571D01*
X124102714Y-100353809D01*
X124102714Y-100591904D01*
X124055095Y-100687142D01*
X124007476Y-100734761D01*
X123912238Y-100782380D01*
X123674142Y-100782380D01*
X123578904Y-100734761D01*
X123531285Y-100687142D01*
X157440333Y-86590142D02*
X157392714Y-86637761D01*
X157249857Y-86685380D01*
X157154619Y-86685380D01*
X157011761Y-86637761D01*
X156916523Y-86542523D01*
X156868904Y-86447285D01*
X156821285Y-86256809D01*
X156821285Y-86113952D01*
X156868904Y-85923476D01*
X156916523Y-85828238D01*
X157011761Y-85733000D01*
X157154619Y-85685380D01*
X157249857Y-85685380D01*
X157392714Y-85733000D01*
X157440333Y-85780619D01*
X158297476Y-86018714D02*
X158297476Y-86685380D01*
X158059380Y-85637761D02*
X157821285Y-86352047D01*
X158440333Y-86352047D01*
X144740333Y-100687142D02*
X144692714Y-100734761D01*
X144549857Y-100782380D01*
X144454619Y-100782380D01*
X144311761Y-100734761D01*
X144216523Y-100639523D01*
X144168904Y-100544285D01*
X144121285Y-100353809D01*
X144121285Y-100210952D01*
X144168904Y-100020476D01*
X144216523Y-99925238D01*
X144311761Y-99830000D01*
X144454619Y-99782380D01*
X144549857Y-99782380D01*
X144692714Y-99830000D01*
X144740333Y-99877619D01*
X145073666Y-99782380D02*
X145692714Y-99782380D01*
X145359380Y-100163333D01*
X145502238Y-100163333D01*
X145597476Y-100210952D01*
X145645095Y-100258571D01*
X145692714Y-100353809D01*
X145692714Y-100591904D01*
X145645095Y-100687142D01*
X145597476Y-100734761D01*
X145502238Y-100782380D01*
X145216523Y-100782380D01*
X145121285Y-100734761D01*
X145073666Y-100687142D01*
X110450333Y-100941142D02*
X110402714Y-100988761D01*
X110259857Y-101036380D01*
X110164619Y-101036380D01*
X110021761Y-100988761D01*
X109926523Y-100893523D01*
X109878904Y-100798285D01*
X109831285Y-100607809D01*
X109831285Y-100464952D01*
X109878904Y-100274476D01*
X109926523Y-100179238D01*
X110021761Y-100084000D01*
X110164619Y-100036380D01*
X110259857Y-100036380D01*
X110402714Y-100084000D01*
X110450333Y-100131619D01*
X110831285Y-100131619D02*
X110878904Y-100084000D01*
X110974142Y-100036380D01*
X111212238Y-100036380D01*
X111307476Y-100084000D01*
X111355095Y-100131619D01*
X111402714Y-100226857D01*
X111402714Y-100322095D01*
X111355095Y-100464952D01*
X110783666Y-101036380D01*
X111402714Y-101036380D01*
X157440333Y-100433142D02*
X157392714Y-100480761D01*
X157249857Y-100528380D01*
X157154619Y-100528380D01*
X157011761Y-100480761D01*
X156916523Y-100385523D01*
X156868904Y-100290285D01*
X156821285Y-100099809D01*
X156821285Y-99956952D01*
X156868904Y-99766476D01*
X156916523Y-99671238D01*
X157011761Y-99576000D01*
X157154619Y-99528380D01*
X157249857Y-99528380D01*
X157392714Y-99576000D01*
X157440333Y-99623619D01*
X158392714Y-100528380D02*
X157821285Y-100528380D01*
X158107000Y-100528380D02*
X158107000Y-99528380D01*
X158011761Y-99671238D01*
X157916523Y-99766476D01*
X157821285Y-99814095D01*
M02*
